<svg width="482px" height="172px"
 viewBox="0.00 0.00 481.98 172.50" xmlns="http://www.w3.org/2000/svg" xmlns:xlink="http://www.w3.org/1999/xlink">
<g id="graph0" class="graph" transform="scale(1.0 1.0) rotate(0.0) translate(4.0 168.5)">
<title>DFA</title>
<polygon fill="white" stroke="transparent" points="-4,4 -4,-168.5 477.98,-168.5 477.98,4 -4,4"/>
<!-- q0 -->
<g id="node1" class="node">
<title>q0</title>
<ellipse fill="none" stroke="black" cx="114.5" cy="-112" rx="19.5" ry="19.5"/>
<text text-anchor="middle" x="114.5" y="-108.3" font-family="Times,serif" font-size="14.00">q0</text>
</g>
<!-- q0&#45;&gt;q0 -->
<g id="edge1" class="edge">
<title>q0&#45;&gt;q0</title>
<path fill="none" stroke="black" d="M107.31,-130.52C106.09,-140.45 108.48,-149.5 114.5,-149.5 118.26,-149.5 120.6,-145.96 121.54,-140.89"/>
<polygon fill="black" stroke="black" points="125.04,-140.57 121.69,-130.52 118.04,-140.47 125.04,-140.57"/>
<text text-anchor="middle" x="114.5" y="-153.3" font-family="Times,serif" font-size="14.00">a</text>
</g>
<!-- q4 -->
<g id="node2" class="node">
<title>q4</title>
<ellipse fill="none" stroke="black" cx="200.49" cy="-64" rx="19.5" ry="19.5"/>
<text text-anchor="middle" x="200.49" y="-60.3" font-family="Times,serif" font-size="14.00">q4</text>
</g>
<!-- q0&#45;&gt;q4 -->
<g id="edge2" class="edge">
<title>q0&#45;&gt;q4</title>
<path fill="none" stroke="black" d="M131.69,-102.75C143.7,-95.88 160.3,-86.4 174.07,-78.53"/>
<polygon fill="black" stroke="black" points="176.12,-81.39 183.06,-73.39 172.64,-75.31 176.12,-81.39"/>
<text text-anchor="middle" x="159.5" y="-91.8" font-family="Times,serif" font-size="14.00">b</text>
</g>
<!-- q4&#45;&gt;q4 -->
<g id="edge4" class="edge">
<title>q4&#45;&gt;q4</title>
<path fill="none" stroke="black" d="M193.3,-82.52C192.08,-92.45 194.48,-101.5 200.49,-101.5 204.25,-101.5 206.6,-97.96 207.53,-92.89"/>
<polygon fill="black" stroke="black" points="211.04,-92.57 207.69,-82.52 204.04,-92.47 211.04,-92.57"/>
<text text-anchor="middle" x="200.49" y="-105.3" font-family="Times,serif" font-size="14.00">b</text>
</g>
<!-- q1 -->
<g id="node3" class="node">
<title>q1</title>
<ellipse fill="none" stroke="black" cx="282.49" cy="-141" rx="19.5" ry="19.5"/>
<text text-anchor="middle" x="282.49" y="-137.3" font-family="Times,serif" font-size="14.00">q1</text>
</g>
<!-- q4&#45;&gt;q1 -->
<g id="edge3" class="edge">
<title>q4&#45;&gt;q1</title>
<path fill="none" stroke="black" d="M214.94,-77.41C221.8,-84.21 230.3,-92.59 237.99,-100 245.23,-106.98 253.23,-114.56 260.37,-121.27"/>
<polygon fill="black" stroke="black" points="258.01,-123.86 267.7,-128.15 262.8,-118.76 258.01,-123.86"/>
<text text-anchor="middle" x="241.49" y="-109.8" font-family="Times,serif" font-size="14.00">a</text>
</g>
<!-- q1&#45;&gt;q0 -->
<g id="edge6" class="edge">
<title>q1&#45;&gt;q0</title>
<path fill="none" stroke="black" d="M262.93,-138.26C242.74,-135.23 209.52,-130.1 181,-125 168.76,-122.81 155.29,-120.18 143.76,-117.85"/>
<polygon fill="black" stroke="black" points="144.31,-114.39 133.81,-115.83 142.92,-121.25 144.31,-114.39"/>
<text text-anchor="middle" x="200.49" y="-135.8" font-family="Times,serif" font-size="14.00">b</text>
</g>
<!-- q5 -->
<g id="node4" class="node">
<title>q5</title>
<ellipse fill="none" stroke="black" cx="368.49" cy="-104" rx="19.5" ry="19.5"/>
<ellipse fill="none" stroke="black" cx="368.49" cy="-104" rx="23.5" ry="23.5"/>
<text text-anchor="middle" x="368.49" y="-100.3" font-family="Times,serif" font-size="14.00">q5</text>
</g>
<!-- q1&#45;&gt;q5 -->
<g id="edge5" class="edge">
<title>q1&#45;&gt;q5</title>
<path fill="none" stroke="black" d="M300.9,-133.33C311.36,-128.72 324.97,-122.73 337.16,-117.36"/>
<polygon fill="black" stroke="black" points="338.8,-120.46 346.54,-113.23 335.98,-114.06 338.8,-120.46"/>
<text text-anchor="middle" x="323.49" y="-128.8" font-family="Times,serif" font-size="14.00">a</text>
</g>
<!-- q5&#45;&gt;q4 -->
<g id="edge8" class="edge">
<title>q5&#45;&gt;q4</title>
<path fill="none" stroke="black" d="M345.5,-98.7C315.59,-91.49 262.1,-78.6 229.4,-70.73"/>
<polygon fill="black" stroke="black" points="230.12,-67.3 219.57,-68.36 228.48,-74.1 230.12,-67.3"/>
<text text-anchor="middle" x="282.49" y="-91.8" font-family="Times,serif" font-size="14.00">b</text>
</g>
<!-- q3 -->
<g id="node5" class="node">
<title>q3</title>
<ellipse fill="none" stroke="black" cx="454.48" cy="-59" rx="19.5" ry="19.5"/>
<text text-anchor="middle" x="454.48" y="-55.3" font-family="Times,serif" font-size="14.00">q3</text>
</g>
<!-- q5&#45;&gt;q3 -->
<g id="edge7" class="edge">
<title>q5&#45;&gt;q3</title>
<path fill="none" stroke="black" d="M392.07,-100.64C400.24,-98.83 409.34,-96.09 416.99,-92 422.82,-88.88 428.46,-84.63 433.5,-80.21"/>
<polygon fill="black" stroke="black" points="435.97,-82.69 440.85,-73.28 431.17,-77.6 435.97,-82.69"/>
<text text-anchor="middle" x="413.49" y="-98.8" font-family="Times,serif" font-size="14.00">a</text>
</g>
<!-- q3&#45;&gt;q4 -->
<g id="edge10" class="edge">
<title>q3&#45;&gt;q4</title>
<path fill="none" stroke="black" d="M434.93,-59.37C391.39,-60.23 282.45,-62.39 230.26,-63.43"/>
<polygon fill="black" stroke="black" points="229.95,-59.93 220.02,-63.63 230.09,-66.93 229.95,-59.93"/>
<text text-anchor="middle" x="323.49" y="-65.8" font-family="Times,serif" font-size="14.00">b</text>
</g>
<!-- q3&#45;&gt;q5 -->
<g id="edge9" class="edge">
<title>q3&#45;&gt;q5</title>
<path fill="none" stroke="black" d="M435.15,-63.39C427.17,-65.68 417.86,-68.88 409.99,-73 404.89,-75.67 399.77,-78.98 394.96,-82.44"/>
<polygon fill="black" stroke="black" points="392.57,-79.86 386.74,-88.71 396.81,-85.43 392.57,-79.86"/>
<text text-anchor="middle" x="413.49" y="-76.8" font-family="Times,serif" font-size="14.00">a</text>
</g>
<g id="node6" class="node">
<title></title>
</g>
<!-- q2 -->
<g id="node7" class="node">
<title>q2</title>
<ellipse fill="none" stroke="black" cx="114.5" cy="-33" rx="19.5" ry="19.5"/>
<ellipse fill="none" stroke="black" cx="114.5" cy="-33" rx="23.5" ry="23.5"/>
<text text-anchor="middle" x="114.5" y="-29.3" font-family="Times,serif" font-size="14.00">q2</text>
</g>
<!-- &#45;&gt;q2 -->
<g id="edge11" class="edge">
<title>&#45;&gt;q2</title>
<path fill="none" stroke="red" d="M54.12,-33C62.43,-33 71.73,-33 80.46,-33"/>
<polygon fill="red" stroke="red" points="80.72,-36.5 90.72,-33 80.72,-29.5 80.72,-36.5"/>
</g>
<!-- q2&#45;&gt;q4 -->
<g id="edge13" class="edge">
<title>q2&#45;&gt;q4</title>
<path fill="none" stroke="black" d="M136.69,-40.82C147.52,-44.82 160.81,-49.72 172.38,-53.99"/>
<polygon fill="black" stroke="black" points="171.4,-57.36 181.99,-57.54 173.82,-50.79 171.4,-57.36"/>
<text text-anchor="middle" x="159.5" y="-54.8" font-family="Times,serif" font-size="14.00">b</text>
</g>
<!-- q2&#45;&gt;q3 -->
<g id="edge12" class="edge">
<title>q2&#45;&gt;q3</title>
<path fill="none" stroke="black" d="M134.69,-20.71C151.19,-11.33 175.99,0 199.49,0 199.49,0 199.49,0 369.49,0 395.68,0 419.48,-19.44 435,-36"/>
<polygon fill="black" stroke="black" points="432.67,-38.65 441.93,-43.81 437.91,-34.01 432.67,-38.65"/>
<text text-anchor="middle" x="282.49" y="-3.8" font-family="Times,serif" font-size="14.00">a</text>
</g>
</g>
</svg>
