<svg width="480px" height="204px"
 viewBox="0.00 0.00 479.98 203.92" xmlns="http://www.w3.org/2000/svg" xmlns:xlink="http://www.w3.org/1999/xlink">
<g id="graph0" class="graph" transform="scale(1.0 1.0) rotate(0.0) translate(4.0 199.92)">
<title>DFA</title>
<polygon fill="white" stroke="transparent" points="-4,4 -4,-199.92 475.98,-199.92 475.98,4 -4,4"/>
<!-- q0 -->
<g id="node1" class="node">
<title>q0</title>
<ellipse fill="none" stroke="black" cx="19.5" cy="-71.92" rx="19.5" ry="19.5"/>
<text text-anchor="middle" x="19.5" y="-68.22" font-family="Times,serif" font-size="14.00">q0</text>
</g>
<!-- q4 -->
<g id="node2" class="node">
<title>q4</title>
<ellipse fill="none" stroke="black" cx="101.49" cy="-128.92" rx="19.5" ry="19.5"/>
<text text-anchor="middle" x="101.49" y="-125.22" font-family="Times,serif" font-size="14.00">q4</text>
</g>
<!-- q0&#45;&gt;q4 -->
<g id="edge1" class="edge">
<title>q0&#45;&gt;q4</title>
<path fill="none" stroke="black" d="M35.92,-82.91C47.54,-91.19 63.68,-102.69 76.92,-112.12"/>
<polygon fill="black" stroke="black" points="74.94,-115.01 85.12,-117.97 79,-109.31 74.94,-115.01"/>
<text text-anchor="middle" x="60.5" y="-105.72" font-family="Times,serif" font-size="14.00">a</text>
</g>
<!-- q1 -->
<g id="node3" class="node">
<title>q1</title>
<ellipse fill="none" stroke="black" cx="187.49" cy="-71.92" rx="19.5" ry="19.5"/>
<ellipse fill="none" stroke="black" cx="187.49" cy="-71.92" rx="23.5" ry="23.5"/>
<text text-anchor="middle" x="187.49" y="-68.22" font-family="Times,serif" font-size="14.00">q1</text>
</g>
<!-- q0&#45;&gt;q1 -->
<g id="edge2" class="edge">
<title>q0&#45;&gt;q1</title>
<path fill="none" stroke="black" d="M39.22,-71.92C66.91,-71.92 119.21,-71.92 153.45,-71.92"/>
<polygon fill="black" stroke="black" points="153.88,-75.42 163.88,-71.92 153.88,-68.42 153.88,-75.42"/>
<text text-anchor="middle" x="101.49" y="-75.72" font-family="Times,serif" font-size="14.00">b</text>
</g>
<!-- q4&#45;&gt;q4 -->
<g id="edge3" class="edge">
<title>q4&#45;&gt;q4</title>
<path fill="none" stroke="black" d="M94.3,-147.45C93.08,-157.38 95.48,-166.42 101.49,-166.42 105.25,-166.42 107.6,-162.89 108.53,-157.81"/>
<polygon fill="black" stroke="black" points="112.04,-157.5 108.69,-147.45 105.04,-157.39 112.04,-157.5"/>
<text text-anchor="middle" x="101.49" y="-170.22" font-family="Times,serif" font-size="14.00">a</text>
</g>
<!-- q4&#45;&gt;q1 -->
<g id="edge4" class="edge">
<title>q4&#45;&gt;q1</title>
<path fill="none" stroke="black" d="M118.29,-118.2C129.76,-110.42 145.55,-99.71 159.05,-90.54"/>
<polygon fill="black" stroke="black" points="161.22,-93.3 167.53,-84.79 157.29,-87.51 161.22,-93.3"/>
<text text-anchor="middle" x="142.49" y="-106.72" font-family="Times,serif" font-size="14.00">b</text>
</g>
<!-- q1&#45;&gt;q0 -->
<g id="edge5" class="edge">
<title>q1&#45;&gt;q0</title>
<path fill="none" stroke="black" d="M165.29,-64.12C152.63,-59.88 136.11,-55.07 120.99,-52.92 103.83,-50.48 99.13,-50.34 82,-52.92 70.44,-54.67 58.06,-58.16 47.46,-61.68"/>
<polygon fill="black" stroke="black" points="46.22,-58.4 37.93,-65 48.53,-65.01 46.22,-58.4"/>
<text text-anchor="middle" x="101.49" y="-56.72" font-family="Times,serif" font-size="14.00">a</text>
</g>
<!-- q3 -->
<g id="node4" class="node">
<title>q3</title>
<ellipse fill="none" stroke="black" cx="280.99" cy="-87.92" rx="19.5" ry="19.5"/>
<text text-anchor="middle" x="280.99" y="-84.22" font-family="Times,serif" font-size="14.00">q3</text>
</g>
<!-- q1&#45;&gt;q3 -->
<g id="edge6" class="edge">
<title>q1&#45;&gt;q3</title>
<path fill="none" stroke="black" d="M211.11,-75.88C223.39,-78.03 238.68,-80.7 251.73,-82.98"/>
<polygon fill="black" stroke="black" points="251.17,-86.44 261.62,-84.71 252.38,-79.54 251.17,-86.44"/>
<text text-anchor="middle" x="232.49" y="-83.72" font-family="Times,serif" font-size="14.00">b</text>
</g>
<!-- q2 -->
<g id="node5" class="node">
<title>q2</title>
<ellipse fill="none" stroke="black" cx="370.49" cy="-85.92" rx="19.5" ry="19.5"/>
<text text-anchor="middle" x="370.49" y="-82.22" font-family="Times,serif" font-size="14.00">q2</text>
</g>
<!-- q3&#45;&gt;q2 -->
<g id="edge7" class="edge">
<title>q3&#45;&gt;q2</title>
<path fill="none" stroke="black" d="M298.13,-78.58C306.21,-74.43 316.31,-70.02 325.99,-67.92 332.38,-66.54 339.03,-67.78 345.15,-70.14"/>
<polygon fill="black" stroke="black" points="343.7,-73.32 354.22,-74.56 346.76,-67.03 343.7,-73.32"/>
<text text-anchor="middle" x="329.49" y="-71.72" font-family="Times,serif" font-size="14.00">a</text>
</g>
<!-- q3&#45;&gt;q2 -->
<g id="edge8" class="edge">
<title>q3&#45;&gt;q2</title>
<path fill="none" stroke="black" d="M300.55,-87.5C312.26,-87.23 327.64,-86.88 340.89,-86.58"/>
<polygon fill="black" stroke="black" points="341.04,-90.07 350.96,-86.35 340.88,-83.08 341.04,-90.07"/>
<text text-anchor="middle" x="329.49" y="-89.72" font-family="Times,serif" font-size="14.00">b</text>
</g>
<!-- q2&#45;&gt;q4 -->
<g id="edge10" class="edge">
<title>q2&#45;&gt;q4</title>
<path fill="none" stroke="black" d="M353.51,-96.1C341.51,-103.14 324.38,-111.93 307.99,-115.92 246.43,-130.91 171.6,-131.38 131.39,-130.25"/>
<polygon fill="black" stroke="black" points="131.35,-126.74 121.24,-129.9 131.12,-133.74 131.35,-126.74"/>
<text text-anchor="middle" x="232.49" y="-130.72" font-family="Times,serif" font-size="14.00">b</text>
</g>
<!-- q5 -->
<g id="node6" class="node">
<title>q5</title>
<ellipse fill="none" stroke="black" cx="452.48" cy="-85.92" rx="19.5" ry="19.5"/>
<text text-anchor="middle" x="452.48" y="-82.22" font-family="Times,serif" font-size="14.00">q5</text>
</g>
<!-- q2&#45;&gt;q5 -->
<g id="edge9" class="edge">
<title>q2&#45;&gt;q5</title>
<path fill="none" stroke="black" d="M390.04,-85.92C399.67,-85.92 411.64,-85.92 422.46,-85.92"/>
<polygon fill="black" stroke="black" points="422.75,-89.42 432.75,-85.92 422.75,-82.42 422.75,-89.42"/>
<text text-anchor="middle" x="411.49" y="-89.72" font-family="Times,serif" font-size="14.00">a</text>
</g>
<!-- q5&#45;&gt;q4 -->
<g id="edge11" class="edge">
<title>q5&#45;&gt;q4</title>
<path fill="none" stroke="black" d="M445.47,-104.24C435.13,-131.85 411.16,-180.92 371.49,-180.92 186.49,-180.92 186.49,-180.92 186.49,-180.92 161.95,-180.92 138.61,-164.68 122.79,-150.36"/>
<polygon fill="black" stroke="black" points="124.88,-147.51 115.23,-143.13 120.04,-152.57 124.88,-147.51"/>
<text text-anchor="middle" x="280.99" y="-184.72" font-family="Times,serif" font-size="14.00">a</text>
</g>
<!-- q5&#45;&gt;q1 -->
<g id="edge12" class="edge">
<title>q5&#45;&gt;q1</title>
<path fill="none" stroke="black" d="M436.68,-74.24C411.82,-55.45 359.34,-19.27 307.99,-5.92 284.76,0.11 276.15,3.3 253.99,-5.92 235.18,-13.76 218.99,-29.91 207.42,-44.28"/>
<polygon fill="black" stroke="black" points="204.46,-42.39 201.15,-52.45 210.01,-46.65 204.46,-42.39"/>
<text text-anchor="middle" x="329.49" y="-17.72" font-family="Times,serif" font-size="14.00">b</text>
</g>
<g id="node7" class="node">
<title></title>
</g>
<!-- &#45;&gt;q2 -->
<g id="edge13" class="edge">
<title>&#45;&gt;q2</title>
<path fill="none" stroke="red" d="M308.03,-48.03C316.06,-52.75 324.92,-58.01 332.99,-62.92 336.91,-65.31 341.04,-67.87 345.07,-70.39"/>
<polygon fill="red" stroke="red" points="343.24,-73.37 353.56,-75.74 346.97,-67.45 343.24,-73.37"/>
</g>
</g>
</svg>
