<svg width="474px" height="196px"
 viewBox="0.00 0.00 473.98 196.50" xmlns="http://www.w3.org/2000/svg" xmlns:xlink="http://www.w3.org/1999/xlink">
<g id="graph0" class="graph" transform="scale(1.0 1.0) rotate(0.0) translate(4.0 192.5)">
<title>DFA</title>
<polygon fill="white" stroke="transparent" points="-4,4 -4,-192.5 469.98,-192.5 469.98,4 -4,4"/>
<!-- q0 -->
<g id="node1" class="node">
<title>q0</title>
<ellipse fill="none" stroke="black" cx="110.5" cy="-142.5" rx="19.5" ry="19.5"/>
<text text-anchor="middle" x="110.5" y="-138.8" font-family="Times,serif" font-size="14.00">q0</text>
</g>
<!-- q1 -->
<g id="node2" class="node">
<title>q1</title>
<ellipse fill="none" stroke="black" cx="360.49" cy="-84.5" rx="19.5" ry="19.5"/>
<ellipse fill="none" stroke="black" cx="360.49" cy="-84.5" rx="23.5" ry="23.5"/>
<text text-anchor="middle" x="360.49" y="-80.8" font-family="Times,serif" font-size="14.00">q1</text>
</g>
<!-- q0&#45;&gt;q1 -->
<g id="edge1" class="edge">
<title>q0&#45;&gt;q1</title>
<path fill="none" stroke="black" d="M128.62,-149.78C166.19,-164.53 257.42,-193.52 318.99,-156.5 333.71,-147.65 343.52,-131.32 349.79,-116.45"/>
<polygon fill="black" stroke="black" points="353.11,-117.57 353.42,-106.98 346.58,-115.06 353.11,-117.57"/>
<text text-anchor="middle" x="233.49" y="-177.3" font-family="Times,serif" font-size="14.00">a</text>
</g>
<!-- q2 -->
<g id="node4" class="node">
<title>q2</title>
<ellipse fill="none" stroke="black" cx="192.49" cy="-85.5" rx="19.5" ry="19.5"/>
<text text-anchor="middle" x="192.49" y="-81.8" font-family="Times,serif" font-size="14.00">q2</text>
</g>
<!-- q0&#45;&gt;q2 -->
<g id="edge2" class="edge">
<title>q0&#45;&gt;q2</title>
<path fill="none" stroke="black" d="M126.16,-130.3C132.72,-124.99 140.63,-118.78 148,-113.5 153.98,-109.21 160.59,-104.8 166.82,-100.78"/>
<polygon fill="black" stroke="black" points="168.98,-103.55 175.54,-95.24 165.22,-97.65 168.98,-103.55"/>
<text text-anchor="middle" x="151.5" y="-117.3" font-family="Times,serif" font-size="14.00">b</text>
</g>
<!-- q1&#45;&gt;q0 -->
<g id="edge3" class="edge">
<title>q1&#45;&gt;q0</title>
<path fill="none" stroke="black" d="M338.21,-92.41C332.05,-94.54 325.3,-96.75 318.99,-98.5 255.8,-116.05 180.12,-130.47 139.9,-137.63"/>
<polygon fill="black" stroke="black" points="139.24,-134.19 130,-139.37 140.46,-141.08 139.24,-134.19"/>
<text text-anchor="middle" x="233.49" y="-123.3" font-family="Times,serif" font-size="14.00">a</text>
</g>
<!-- q5 -->
<g id="node3" class="node">
<title>q5</title>
<ellipse fill="none" stroke="black" cx="446.48" cy="-84.5" rx="19.5" ry="19.5"/>
<text text-anchor="middle" x="446.48" y="-80.8" font-family="Times,serif" font-size="14.00">q5</text>
</g>
<!-- q1&#45;&gt;q5 -->
<g id="edge4" class="edge">
<title>q1&#45;&gt;q5</title>
<path fill="none" stroke="black" d="M381.07,-96.09C389.53,-99.78 399.62,-102.46 408.99,-100.5 412.48,-99.77 416.04,-98.68 419.51,-97.41"/>
<polygon fill="black" stroke="black" points="421.01,-100.58 428.89,-93.5 418.31,-94.12 421.01,-100.58"/>
<text text-anchor="middle" x="405.49" y="-104.3" font-family="Times,serif" font-size="14.00">b</text>
</g>
<!-- q5&#45;&gt;q1 -->
<g id="edge5" class="edge">
<title>q5&#45;&gt;q1</title>
<path fill="none" stroke="black" d="M426.93,-82.68C421.19,-82.19 414.83,-81.74 408.99,-81.5 404.31,-81.31 399.38,-81.35 394.53,-81.52"/>
<polygon fill="black" stroke="black" points="393.98,-78.05 384.19,-82.1 394.37,-85.04 393.98,-78.05"/>
<text text-anchor="middle" x="405.49" y="-85.3" font-family="Times,serif" font-size="14.00">a</text>
</g>
<!-- q5&#45;&gt;q1 -->
<g id="edge6" class="edge">
<title>q5&#45;&gt;q1</title>
<path fill="none" stroke="black" d="M430.79,-72.58C424.47,-68.19 416.76,-63.74 408.99,-61.5 401.72,-59.4 394.21,-61.04 387.36,-64.23"/>
<polygon fill="black" stroke="black" points="385.43,-61.31 378.52,-69.34 388.93,-67.37 385.43,-61.31"/>
<text text-anchor="middle" x="405.49" y="-65.3" font-family="Times,serif" font-size="14.00">b</text>
</g>
<!-- q2&#45;&gt;q1 -->
<g id="edge7" class="edge">
<title>q2&#45;&gt;q1</title>
<path fill="none" stroke="black" d="M212.21,-85.39C239.91,-85.22 292.21,-84.9 326.45,-84.7"/>
<polygon fill="black" stroke="black" points="326.9,-88.19 336.88,-84.63 326.85,-81.19 326.9,-88.19"/>
<text text-anchor="middle" x="274.49" y="-88.3" font-family="Times,serif" font-size="14.00">a</text>
</g>
<!-- q3 -->
<g id="node5" class="node">
<title>q3</title>
<ellipse fill="none" stroke="black" cx="274.49" cy="-44.5" rx="19.5" ry="19.5"/>
<text text-anchor="middle" x="274.49" y="-40.8" font-family="Times,serif" font-size="14.00">q3</text>
</g>
<!-- q2&#45;&gt;q3 -->
<g id="edge8" class="edge">
<title>q2&#45;&gt;q3</title>
<path fill="none" stroke="black" d="M210.07,-77C220.94,-71.43 235.37,-64.04 247.72,-57.71"/>
<polygon fill="black" stroke="black" points="249.36,-60.8 256.66,-53.12 246.17,-54.57 249.36,-60.8"/>
<text text-anchor="middle" x="233.49" y="-69.3" font-family="Times,serif" font-size="14.00">b</text>
</g>
<!-- q3&#45;&gt;q1 -->
<g id="edge9" class="edge">
<title>q3&#45;&gt;q1</title>
<path fill="none" stroke="black" d="M292.49,-52.59C303.19,-57.69 317.28,-64.4 329.79,-70.35"/>
<polygon fill="black" stroke="black" points="328.42,-73.58 338.95,-74.72 331.43,-67.26 328.42,-73.58"/>
<text text-anchor="middle" x="315.49" y="-68.3" font-family="Times,serif" font-size="14.00">a</text>
</g>
<!-- q3&#45;&gt;q1 -->
<g id="edge10" class="edge">
<title>q3&#45;&gt;q1</title>
<path fill="none" stroke="black" d="M293.9,-40.17C301.9,-39.16 311.2,-39.19 318.99,-42.5 326.72,-45.78 333.7,-51.35 339.59,-57.38"/>
<polygon fill="black" stroke="black" points="337.21,-59.96 346.46,-65.12 342.44,-55.31 337.21,-59.96"/>
<text text-anchor="middle" x="315.49" y="-46.3" font-family="Times,serif" font-size="14.00">b</text>
</g>
<g id="node6" class="node">
<title></title>
</g>
<!-- q4 -->
<g id="node7" class="node">
<title>q4</title>
<ellipse fill="none" stroke="black" cx="110.5" cy="-19.5" rx="19.5" ry="19.5"/>
<text text-anchor="middle" x="110.5" y="-15.8" font-family="Times,serif" font-size="14.00">q4</text>
</g>
<!-- &#45;&gt;q4 -->
<g id="edge11" class="edge">
<title>&#45;&gt;q4</title>
<path fill="none" stroke="red" d="M54.24,-19.5C62.7,-19.5 72.14,-19.5 80.77,-19.5"/>
<polygon fill="red" stroke="red" points="80.8,-23 90.8,-19.5 80.8,-16 80.8,-23"/>
</g>
<!-- q4&#45;&gt;q1 -->
<g id="edge12" class="edge">
<title>q4&#45;&gt;q1</title>
<path fill="none" stroke="black" d="M129.77,-15.14C163.4,-8 236.88,3.53 293.99,-16.5 313.96,-23.5 330.44,-40.73 341.88,-56.1"/>
<polygon fill="black" stroke="black" points="339.08,-58.21 347.7,-64.36 344.8,-54.17 339.08,-58.21"/>
<text text-anchor="middle" x="233.49" y="-10.3" font-family="Times,serif" font-size="14.00">a</text>
</g>
<!-- q4&#45;&gt;q2 -->
<g id="edge13" class="edge">
<title>q4&#45;&gt;q2</title>
<path fill="none" stroke="black" d="M126.17,-31.6C138.12,-41.47 155.2,-55.56 168.9,-66.86"/>
<polygon fill="black" stroke="black" points="166.97,-69.81 176.92,-73.47 171.43,-64.41 166.97,-69.81"/>
<text text-anchor="middle" x="151.5" y="-57.3" font-family="Times,serif" font-size="14.00">b</text>
</g>
</g>
</svg>
