<svg width="263px" height="257px"
 viewBox="0.00 0.00 263.09 256.64" xmlns="http://www.w3.org/2000/svg" xmlns:xlink="http://www.w3.org/1999/xlink">
<g id="graph0" class="graph" transform="scale(1.0 1.0) rotate(0.0) translate(4.0 252.64)">
<title>Minimaler DFA</title>
<polygon fill="white" stroke="transparent" points="-4,4 -4,-252.64 259.09,-252.64 259.09,4 -4,4"/>
<g id="node1" class="node">
<title></title>
</g>
<!-- q5 -->
<g id="node2" class="node">
<title>q5</title>
<ellipse fill="none" stroke="black" cx="114.5" cy="-149.05" rx="19.5" ry="19.5"/>
<ellipse fill="none" stroke="black" cx="114.5" cy="-149.05" rx="23.5" ry="23.5"/>
<text text-anchor="middle" x="114.5" y="-145.35" font-family="Times,serif" font-size="14.00">q5</text>
</g>
<!-- &#45;&gt;q5 -->
<g id="edge1" class="edge">
<title>&#45;&gt;q5</title>
<path fill="none" stroke="red" d="M54.12,-149.05C62.43,-149.05 71.73,-149.05 80.46,-149.05"/>
<polygon fill="red" stroke="red" points="80.72,-152.55 90.72,-149.05 80.72,-145.55 80.72,-152.55"/>
</g>
<!-- q1q4 -->
<g id="node3" class="node">
<title>q1q4</title>
<ellipse fill="none" stroke="black" cx="218.04" cy="-187.05" rx="28.7" ry="28.7"/>
<text text-anchor="middle" x="218.04" y="-183.35" font-family="Times,serif" font-size="14.00">q1q4</text>
</g>
<!-- q5&#45;&gt;q1q4 -->
<g id="edge2" class="edge">
<title>q5&#45;&gt;q1q4</title>
<path fill="none" stroke="black" d="M136.47,-157.47C142.74,-159.95 149.63,-162.64 156,-165.05 164.18,-168.14 173.01,-171.37 181.35,-174.39"/>
<polygon fill="black" stroke="black" points="180.24,-177.71 190.84,-177.8 182.61,-171.12 180.24,-177.71"/>
<text text-anchor="middle" x="159.5" y="-170.85" font-family="Times,serif" font-size="14.00">a</text>
</g>
<!-- q0q2q3 -->
<g id="node4" class="node">
<title>q0q2q3</title>
<ellipse fill="none" stroke="black" cx="218.04" cy="-37.05" rx="37.09" ry="37.09"/>
<text text-anchor="middle" x="218.04" y="-33.35" font-family="Times,serif" font-size="14.00">q0q2q3</text>
</g>
<!-- q5&#45;&gt;q0q2q3 -->
<g id="edge3" class="edge">
<title>q5&#45;&gt;q0q2q3</title>
<path fill="none" stroke="black" d="M130.92,-132.04C145.38,-116.08 167.45,-91.75 185.62,-71.71"/>
<polygon fill="black" stroke="black" points="188.25,-74.02 192.37,-64.26 183.06,-69.32 188.25,-74.02"/>
<text text-anchor="middle" x="159.5" y="-106.85" font-family="Times,serif" font-size="14.00">b</text>
</g>
<!-- q1q4&#45;&gt;q5 -->
<g id="edge4" class="edge">
<title>q1q4&#45;&gt;q5</title>
<path fill="none" stroke="black" d="M197.35,-167.15C187.83,-158.93 175.72,-150.33 163,-146.05 158.25,-144.45 153.1,-143.78 147.99,-143.68"/>
<polygon fill="black" stroke="black" points="147.53,-140.2 137.71,-144.18 147.87,-147.19 147.53,-140.2"/>
<text text-anchor="middle" x="159.5" y="-149.85" font-family="Times,serif" font-size="14.00">a</text>
</g>
<!-- q1q4&#45;&gt;q1q4 -->
<g id="edge5" class="edge">
<title>q1q4&#45;&gt;q1q4</title>
<path fill="none" stroke="black" d="M207.23,-213.86C206.62,-224.62 210.23,-233.64 218.04,-233.64 223.17,-233.64 226.49,-229.76 227.99,-224.04"/>
<polygon fill="black" stroke="black" points="231.49,-224.12 228.85,-213.86 224.52,-223.53 231.49,-224.12"/>
<text text-anchor="middle" x="218.04" y="-237.44" font-family="Times,serif" font-size="14.00">b</text>
</g>
<!-- q0q2q3&#45;&gt;q0q2q3 -->
<g id="edge6" class="edge">
<title>q0q2q3&#45;&gt;q0q2q3</title>
<path fill="none" stroke="black" d="M212.63,-73.83C212.87,-84.16 214.67,-92.09 218.04,-92.09 220.15,-92.09 221.64,-89 222.53,-84.15"/>
<polygon fill="black" stroke="black" points="226.04,-84.11 223.45,-73.83 219.07,-83.48 226.04,-84.11"/>
<text text-anchor="middle" x="218.04" y="-95.89" font-family="Times,serif" font-size="14.00">a</text>
</g>
<!-- q0q2q3&#45;&gt;q0q2q3 -->
<g id="edge7" class="edge">
<title>q0q2q3&#45;&gt;q0q2q3</title>
<path fill="none" stroke="black" d="M207.65,-72.75C205.8,-92.24 209.26,-110.09 218.04,-110.09 225.25,-110.09 228.87,-98.08 228.92,-83"/>
<polygon fill="black" stroke="black" points="232.4,-82.57 228.43,-72.75 225.41,-82.9 232.4,-82.57"/>
<text text-anchor="middle" x="218.04" y="-113.89" font-family="Times,serif" font-size="14.00">b</text>
</g>
</g>
</svg>
