<svg width="474px" height="243px"
 viewBox="0.00 0.00 473.98 243.50" xmlns="http://www.w3.org/2000/svg" xmlns:xlink="http://www.w3.org/1999/xlink">
<g id="graph0" class="graph" transform="scale(1.0 1.0) rotate(0.0) translate(4.0 239.5)">
<title>DFA</title>
<polygon fill="white" stroke="transparent" points="-4,4 -4,-239.5 469.98,-239.5 469.98,4 -4,4"/>
<!-- q0 -->
<g id="node1" class="node">
<title>q0</title>
<ellipse fill="none" stroke="black" cx="110.5" cy="-161.5" rx="19.5" ry="19.5"/>
<text text-anchor="middle" x="110.5" y="-157.8" font-family="Times,serif" font-size="14.00">q0</text>
</g>
<!-- q5 -->
<g id="node2" class="node">
<title>q5</title>
<ellipse fill="none" stroke="black" cx="192.49" cy="-161.5" rx="19.5" ry="19.5"/>
<text text-anchor="middle" x="192.49" y="-157.8" font-family="Times,serif" font-size="14.00">q5</text>
</g>
<!-- q0&#45;&gt;q5 -->
<g id="edge1" class="edge">
<title>q0&#45;&gt;q5</title>
<path fill="none" stroke="black" d="M130.05,-161.5C139.68,-161.5 151.65,-161.5 162.47,-161.5"/>
<polygon fill="black" stroke="black" points="162.76,-165 172.76,-161.5 162.76,-158 162.76,-165"/>
<text text-anchor="middle" x="151.5" y="-165.3" font-family="Times,serif" font-size="14.00">a</text>
</g>
<!-- q6 -->
<g id="node3" class="node">
<title>q6</title>
<ellipse fill="none" stroke="black" cx="274.49" cy="-79.5" rx="19.5" ry="19.5"/>
<text text-anchor="middle" x="274.49" y="-75.8" font-family="Times,serif" font-size="14.00">q6</text>
</g>
<!-- q0&#45;&gt;q6 -->
<g id="edge2" class="edge">
<title>q0&#45;&gt;q6</title>
<path fill="none" stroke="black" d="M126.51,-149.46C138.57,-140.18 156.22,-127.45 173,-118.5 196.58,-105.91 225.14,-95.23 245.78,-88.24"/>
<polygon fill="black" stroke="black" points="247.1,-91.49 255.5,-85.03 244.9,-84.84 247.1,-91.49"/>
<text text-anchor="middle" x="192.49" y="-122.3" font-family="Times,serif" font-size="14.00">b</text>
</g>
<!-- q5&#45;&gt;q5 -->
<g id="edge3" class="edge">
<title>q5&#45;&gt;q5</title>
<path fill="none" stroke="black" d="M185.3,-180.02C184.08,-189.95 186.48,-199 192.49,-199 196.25,-199 198.6,-195.46 199.53,-190.39"/>
<polygon fill="black" stroke="black" points="203.04,-190.07 199.69,-180.02 196.04,-189.97 203.04,-190.07"/>
<text text-anchor="middle" x="192.49" y="-202.8" font-family="Times,serif" font-size="14.00">a</text>
</g>
<!-- q5&#45;&gt;q6 -->
<g id="edge4" class="edge">
<title>q5&#45;&gt;q6</title>
<path fill="none" stroke="black" d="M208.12,-149.73C216.82,-142.49 227.89,-132.83 236.99,-123.5 243.37,-116.96 249.87,-109.44 255.59,-102.48"/>
<polygon fill="black" stroke="black" points="258.34,-104.66 261.89,-94.68 252.89,-100.26 258.34,-104.66"/>
<text text-anchor="middle" x="233.49" y="-133.3" font-family="Times,serif" font-size="14.00">b</text>
</g>
<!-- q6&#45;&gt;q6 -->
<g id="edge6" class="edge">
<title>q6&#45;&gt;q6</title>
<path fill="none" stroke="black" d="M267.3,-98.02C266.08,-107.95 268.48,-117 274.49,-117 278.25,-117 280.6,-113.46 281.53,-108.39"/>
<polygon fill="black" stroke="black" points="285.03,-108.07 281.68,-98.02 278.04,-107.97 285.03,-108.07"/>
<text text-anchor="middle" x="274.49" y="-120.8" font-family="Times,serif" font-size="14.00">b</text>
</g>
<!-- q3 -->
<g id="node4" class="node">
<title>q3</title>
<ellipse fill="none" stroke="black" cx="360.49" cy="-128.5" rx="19.5" ry="19.5"/>
<ellipse fill="none" stroke="black" cx="360.49" cy="-128.5" rx="23.5" ry="23.5"/>
<text text-anchor="middle" x="360.49" y="-124.8" font-family="Times,serif" font-size="14.00">q3</text>
</g>
<!-- q6&#45;&gt;q3 -->
<g id="edge5" class="edge">
<title>q6&#45;&gt;q3</title>
<path fill="none" stroke="black" d="M291.69,-88.95C302.84,-95.45 317.96,-104.27 331.09,-111.93"/>
<polygon fill="black" stroke="black" points="329.39,-114.99 339.79,-117.01 332.92,-108.95 329.39,-114.99"/>
<text text-anchor="middle" x="315.49" y="-107.3" font-family="Times,serif" font-size="14.00">a</text>
</g>
<!-- q3&#45;&gt;q0 -->
<g id="edge8" class="edge">
<title>q3&#45;&gt;q0</title>
<path fill="none" stroke="black" d="M352.11,-150.76C345.76,-166.45 335.06,-186.7 318.99,-198.5 279.71,-227.35 260.43,-217.13 211.99,-222.5 194.77,-224.41 189.02,-229.1 173,-222.5 154.8,-215.01 139.14,-199.24 128.18,-185.61"/>
<polygon fill="black" stroke="black" points="130.83,-183.32 121.98,-177.49 125.27,-187.57 130.83,-183.32"/>
<text text-anchor="middle" x="233.49" y="-224.3" font-family="Times,serif" font-size="14.00">b</text>
</g>
<!-- q4 -->
<g id="node5" class="node">
<title>q4</title>
<ellipse fill="none" stroke="black" cx="446.48" cy="-128.5" rx="19.5" ry="19.5"/>
<text text-anchor="middle" x="446.48" y="-124.8" font-family="Times,serif" font-size="14.00">q4</text>
</g>
<!-- q3&#45;&gt;q4 -->
<g id="edge7" class="edge">
<title>q3&#45;&gt;q4</title>
<path fill="none" stroke="black" d="M384,-128.5C394.06,-128.5 406.03,-128.5 416.73,-128.5"/>
<polygon fill="black" stroke="black" points="416.89,-132 426.89,-128.5 416.89,-125 416.89,-132"/>
<text text-anchor="middle" x="405.49" y="-132.3" font-family="Times,serif" font-size="14.00">a</text>
</g>
<!-- q4&#45;&gt;q5 -->
<g id="edge9" class="edge">
<title>q4&#45;&gt;q5</title>
<path fill="none" stroke="black" d="M430.13,-139.13C418.17,-146.73 400.81,-156.34 383.99,-160.5 328.03,-174.33 259.97,-169.79 222.22,-165.49"/>
<polygon fill="black" stroke="black" points="222.32,-161.97 211.97,-164.23 221.47,-168.92 222.32,-161.97"/>
<text text-anchor="middle" x="315.49" y="-173.3" font-family="Times,serif" font-size="14.00">a</text>
</g>
<!-- q4&#45;&gt;q6 -->
<g id="edge10" class="edge">
<title>q4&#45;&gt;q6</title>
<path fill="none" stroke="black" d="M432.37,-114.41C420.86,-103.13 403.02,-88.13 383.99,-81.5 358,-72.44 326.34,-73.07 303.94,-75.28"/>
<polygon fill="black" stroke="black" points="303.29,-71.83 293.76,-76.45 304.09,-78.78 303.29,-71.83"/>
<text text-anchor="middle" x="360.49" y="-85.3" font-family="Times,serif" font-size="14.00">b</text>
</g>
<g id="node6" class="node">
<title></title>
</g>
<!-- q2 -->
<g id="node7" class="node">
<title>q2</title>
<ellipse fill="none" stroke="black" cx="110.5" cy="-19.5" rx="19.5" ry="19.5"/>
<text text-anchor="middle" x="110.5" y="-15.8" font-family="Times,serif" font-size="14.00">q2</text>
</g>
<!-- &#45;&gt;q2 -->
<g id="edge11" class="edge">
<title>&#45;&gt;q2</title>
<path fill="none" stroke="red" d="M54.24,-19.5C62.7,-19.5 72.14,-19.5 80.77,-19.5"/>
<polygon fill="red" stroke="red" points="80.8,-23 90.8,-19.5 80.8,-16 80.8,-23"/>
</g>
<!-- q2&#45;&gt;q6 -->
<g id="edge13" class="edge">
<title>q2&#45;&gt;q6</title>
<path fill="none" stroke="black" d="M129,-13.34C149.7,-7.11 184.78,0.09 211.99,-11.5 231.83,-19.94 247.89,-38.48 258.61,-54.07"/>
<polygon fill="black" stroke="black" points="255.91,-56.34 264.3,-62.81 261.78,-52.52 255.91,-56.34"/>
<text text-anchor="middle" x="192.49" y="-15.3" font-family="Times,serif" font-size="14.00">b</text>
</g>
<!-- q1 -->
<g id="node8" class="node">
<title>q1</title>
<ellipse fill="none" stroke="black" cx="192.49" cy="-54.5" rx="19.5" ry="19.5"/>
<text text-anchor="middle" x="192.49" y="-50.8" font-family="Times,serif" font-size="14.00">q1</text>
</g>
<!-- q2&#45;&gt;q1 -->
<g id="edge12" class="edge">
<title>q2&#45;&gt;q1</title>
<path fill="none" stroke="black" d="M128.86,-27.09C139.41,-31.71 153.1,-37.7 164.99,-42.9"/>
<polygon fill="black" stroke="black" points="163.88,-46.24 174.45,-47.04 166.69,-39.82 163.88,-46.24"/>
<text text-anchor="middle" x="151.5" y="-42.3" font-family="Times,serif" font-size="14.00">a</text>
</g>
<!-- q1&#45;&gt;q6 -->
<g id="edge14" class="edge">
<title>q1&#45;&gt;q6</title>
<path fill="none" stroke="black" d="M209.94,-44.87C218.22,-41.28 228.32,-38.87 236.99,-42.5 244.09,-45.47 250.51,-50.56 255.91,-56.04"/>
<polygon fill="black" stroke="black" points="253.36,-58.43 262.62,-63.57 258.59,-53.78 253.36,-58.43"/>
<text text-anchor="middle" x="233.49" y="-46.3" font-family="Times,serif" font-size="14.00">a</text>
</g>
<!-- q1&#45;&gt;q6 -->
<g id="edge15" class="edge">
<title>q1&#45;&gt;q6</title>
<path fill="none" stroke="black" d="M211.25,-60.05C221.5,-63.25 234.61,-67.35 246.16,-70.96"/>
<polygon fill="black" stroke="black" points="245.2,-74.32 255.79,-73.97 247.29,-67.64 245.2,-74.32"/>
<text text-anchor="middle" x="233.49" y="-72.3" font-family="Times,serif" font-size="14.00">b</text>
</g>
</g>
</svg>
