<svg width="406px" height="233px"
 viewBox="0.00 0.00 405.99 233.00" xmlns="http://www.w3.org/2000/svg" xmlns:xlink="http://www.w3.org/1999/xlink">
<g id="graph0" class="graph" transform="scale(1.0 1.0) rotate(0.0) translate(4.0 229.0)">
<title>DFA</title>
<polygon fill="white" stroke="transparent" points="-4,4 -4,-229 401.99,-229 401.99,4 -4,4"/>
<!-- q0 -->
<g id="node1" class="node">
<title>q0</title>
<ellipse fill="none" stroke="black" cx="23.5" cy="-110" rx="19.5" ry="19.5"/>
<ellipse fill="none" stroke="black" cx="23.5" cy="-110" rx="23.5" ry="23.5"/>
<text text-anchor="middle" x="23.5" y="-106.3" font-family="Times,serif" font-size="14.00">q0</text>
</g>
<!-- q4 -->
<g id="node2" class="node">
<title>q4</title>
<ellipse fill="none" stroke="black" cx="113.49" cy="-173" rx="19.5" ry="19.5"/>
<ellipse fill="none" stroke="black" cx="113.49" cy="-173" rx="23.5" ry="23.5"/>
<text text-anchor="middle" x="113.49" y="-169.3" font-family="Times,serif" font-size="14.00">q4</text>
</g>
<!-- q0&#45;&gt;q4 -->
<g id="edge1" class="edge">
<title>q0&#45;&gt;q4</title>
<path fill="none" stroke="black" d="M43.16,-123.36C55.53,-132.21 71.94,-143.97 85.7,-153.82"/>
<polygon fill="black" stroke="black" points="83.69,-156.68 93.86,-159.66 87.77,-150.99 83.69,-156.68"/>
<text text-anchor="middle" x="68.5" y="-146.8" font-family="Times,serif" font-size="14.00">a</text>
</g>
<!-- q1 -->
<g id="node5" class="node">
<title>q1</title>
<ellipse fill="none" stroke="black" cx="378.49" cy="-105" rx="19.5" ry="19.5"/>
<text text-anchor="middle" x="378.49" y="-101.3" font-family="Times,serif" font-size="14.00">q1</text>
</g>
<!-- q0&#45;&gt;q1 -->
<g id="edge2" class="edge">
<title>q0&#45;&gt;q1</title>
<path fill="none" stroke="black" d="M41.66,-94.68C58.47,-81.3 85.43,-64 112.49,-64 112.49,-64 112.49,-64 289.99,-64 313.34,-64 337.17,-76.13 354.06,-87.19"/>
<polygon fill="black" stroke="black" points="352.46,-90.34 362.67,-93.14 356.43,-84.58 352.46,-90.34"/>
<text text-anchor="middle" x="199.49" y="-67.8" font-family="Times,serif" font-size="14.00">b</text>
</g>
<!-- q2 -->
<g id="node3" class="node">
<title>q2</title>
<ellipse fill="none" stroke="black" cx="199.49" cy="-117" rx="19.5" ry="19.5"/>
<text text-anchor="middle" x="199.49" y="-113.3" font-family="Times,serif" font-size="14.00">q2</text>
</g>
<!-- q4&#45;&gt;q2 -->
<g id="edge3" class="edge">
<title>q4&#45;&gt;q2</title>
<path fill="none" stroke="black" d="M132.86,-159.46C139.74,-154.49 147.66,-148.9 154.99,-144 160.95,-140.02 167.47,-135.87 173.61,-132.05"/>
<polygon fill="black" stroke="black" points="175.54,-134.98 182.22,-126.75 171.87,-129.02 175.54,-134.98"/>
<text text-anchor="middle" x="158.49" y="-147.8" font-family="Times,serif" font-size="14.00">a</text>
</g>
<!-- q3 -->
<g id="node4" class="node">
<title>q3</title>
<ellipse fill="none" stroke="black" cx="288.99" cy="-143" rx="19.5" ry="19.5"/>
<ellipse fill="none" stroke="black" cx="288.99" cy="-143" rx="23.5" ry="23.5"/>
<text text-anchor="middle" x="288.99" y="-139.3" font-family="Times,serif" font-size="14.00">q3</text>
</g>
<!-- q4&#45;&gt;q3 -->
<g id="edge4" class="edge">
<title>q4&#45;&gt;q3</title>
<path fill="none" stroke="black" d="M135.6,-181.97C162.44,-191.89 209.42,-204.25 243.99,-186 252.14,-181.7 259.79,-175.42 266.35,-168.97"/>
<polygon fill="black" stroke="black" points="269.16,-171.1 273.53,-161.45 264.09,-166.27 269.16,-171.1"/>
<text text-anchor="middle" x="199.49" y="-198.8" font-family="Times,serif" font-size="14.00">b</text>
</g>
<!-- q2&#45;&gt;q0 -->
<g id="edge5" class="edge">
<title>q2&#45;&gt;q0</title>
<path fill="none" stroke="black" d="M179.99,-116.26C150.79,-115.08 93.62,-112.78 57.33,-111.32"/>
<polygon fill="black" stroke="black" points="57.38,-107.82 47.24,-110.92 57.1,-114.81 57.38,-107.82"/>
<text text-anchor="middle" x="113.49" y="-117.8" font-family="Times,serif" font-size="14.00">a</text>
</g>
<!-- q2&#45;&gt;q3 -->
<g id="edge6" class="edge">
<title>q2&#45;&gt;q3</title>
<path fill="none" stroke="black" d="M218.62,-122.39C229.52,-125.63 243.7,-129.84 256.4,-133.61"/>
<polygon fill="black" stroke="black" points="255.58,-137.02 266.17,-136.52 257.58,-130.31 255.58,-137.02"/>
<text text-anchor="middle" x="240.49" y="-132.8" font-family="Times,serif" font-size="14.00">b</text>
</g>
<!-- q3&#45;&gt;q4 -->
<g id="edge7" class="edge">
<title>q3&#45;&gt;q4</title>
<path fill="none" stroke="black" d="M265.75,-146.85C235.6,-152.06 181.57,-161.4 146.91,-167.4"/>
<polygon fill="black" stroke="black" points="146.08,-163.99 136.82,-169.14 147.27,-170.88 146.08,-163.99"/>
<text text-anchor="middle" x="199.49" y="-164.8" font-family="Times,serif" font-size="14.00">a</text>
</g>
<!-- q3&#45;&gt;q1 -->
<g id="edge8" class="edge">
<title>q3&#45;&gt;q1</title>
<path fill="none" stroke="black" d="M310.84,-134.04C320.09,-130.06 331.09,-125.31 340.99,-121 344.26,-119.58 347.7,-118.08 351.09,-116.59"/>
<polygon fill="black" stroke="black" points="352.66,-119.73 360.41,-112.51 349.85,-113.32 352.66,-119.73"/>
<text text-anchor="middle" x="337.49" y="-127.8" font-family="Times,serif" font-size="14.00">b</text>
</g>
<!-- q1&#45;&gt;q4 -->
<g id="edge9" class="edge">
<title>q1&#45;&gt;q4</title>
<path fill="none" stroke="black" d="M366.94,-120.84C355.85,-136.44 337.11,-160.04 315.99,-175 278.07,-201.85 264.61,-205.17 218.99,-214 190.66,-219.48 179.95,-217.49 154.99,-203 150.17,-200.2 145.24,-196.93 140.55,-193.61"/>
<polygon fill="black" stroke="black" points="142.58,-190.75 132.45,-187.64 138.43,-196.39 142.58,-190.75"/>
<text text-anchor="middle" x="240.49" y="-213.8" font-family="Times,serif" font-size="14.00">a</text>
</g>
<!-- q1&#45;&gt;q3 -->
<g id="edge10" class="edge">
<title>q1&#45;&gt;q3</title>
<path fill="none" stroke="black" d="M359.17,-100.27C351.19,-99.08 341.88,-98.89 333.99,-102 325.61,-105.3 317.88,-111.03 311.32,-117.18"/>
<polygon fill="black" stroke="black" points="308.68,-114.87 304.18,-124.47 313.68,-119.77 308.68,-114.87"/>
<text text-anchor="middle" x="337.49" y="-105.8" font-family="Times,serif" font-size="14.00">b</text>
</g>
<g id="node6" class="node">
<title></title>
</g>
<!-- &#45;&gt;q1 -->
<g id="edge11" class="edge">
<title>&#45;&gt;q1</title>
<path fill="none" stroke="red" d="M316.17,-31.51C324.65,-36.61 333.73,-42.92 340.99,-50 349.72,-58.51 357.5,-69.45 363.61,-79.33"/>
<polygon fill="red" stroke="red" points="360.63,-81.17 368.73,-88 366.66,-77.61 360.63,-81.17"/>
</g>
</g>
</svg>
