<svg width="392px" height="202px"
 viewBox="0.00 0.00 391.99 202.00" xmlns="http://www.w3.org/2000/svg" xmlns:xlink="http://www.w3.org/1999/xlink">
<g id="graph0" class="graph" transform="scale(1.0 1.0) rotate(0.0) translate(4.0 198.0)">
<title>DFA</title>
<polygon fill="white" stroke="transparent" points="-4,4 -4,-198 387.99,-198 387.99,4 -4,4"/>
<!-- q0 -->
<g id="node1" class="node">
<title>q0</title>
<ellipse fill="none" stroke="black" cx="278.49" cy="-141.5" rx="19.5" ry="19.5"/>
<text text-anchor="middle" x="278.49" y="-137.8" font-family="Times,serif" font-size="14.00">q0</text>
</g>
<!-- q0&#45;&gt;q0 -->
<g id="edge1" class="edge">
<title>q0&#45;&gt;q0</title>
<path fill="none" stroke="black" d="M270.64,-159.63C269.17,-169.71 271.79,-179 278.49,-179 282.79,-179 285.4,-175.19 286.34,-169.8"/>
<polygon fill="black" stroke="black" points="289.84,-169.63 286.35,-159.63 282.84,-169.63 289.84,-169.63"/>
<text text-anchor="middle" x="278.49" y="-182.8" font-family="Times,serif" font-size="14.00">a</text>
</g>
<!-- q2 -->
<g id="node2" class="node">
<title>q2</title>
<ellipse fill="none" stroke="black" cx="364.49" cy="-117.5" rx="19.5" ry="19.5"/>
<text text-anchor="middle" x="364.49" y="-113.8" font-family="Times,serif" font-size="14.00">q2</text>
</g>
<!-- q0&#45;&gt;q2 -->
<g id="edge2" class="edge">
<title>q0&#45;&gt;q2</title>
<path fill="none" stroke="black" d="M296.14,-150.2C305.43,-153.87 317.09,-156.48 326.99,-152.5 333.67,-149.81 339.81,-145.26 345.08,-140.31"/>
<polygon fill="black" stroke="black" points="347.74,-142.59 352.12,-132.94 342.68,-137.75 347.74,-142.59"/>
<text text-anchor="middle" x="323.49" y="-157.3" font-family="Times,serif" font-size="14.00">b</text>
</g>
<!-- q2&#45;&gt;q0 -->
<g id="edge3" class="edge">
<title>q2&#45;&gt;q0</title>
<path fill="none" stroke="black" d="M345.59,-122.61C334.57,-125.76 320.21,-129.86 307.69,-133.44"/>
<polygon fill="black" stroke="black" points="306.37,-130.18 297.72,-136.29 308.29,-136.91 306.37,-130.18"/>
<text text-anchor="middle" x="323.49" y="-133.3" font-family="Times,serif" font-size="14.00">a</text>
</g>
<!-- q2&#45;&gt;q0 -->
<g id="edge4" class="edge">
<title>q2&#45;&gt;q0</title>
<path fill="none" stroke="black" d="M346.25,-109.68C338.14,-107.07 328.42,-105.5 319.99,-108.5 312.71,-111.09 305.78,-115.62 299.79,-120.5"/>
<polygon fill="black" stroke="black" points="297.37,-117.96 292.24,-127.23 302.03,-123.19 297.37,-117.96"/>
<text text-anchor="middle" x="323.49" y="-112.3" font-family="Times,serif" font-size="14.00">b</text>
</g>
<g id="node3" class="node">
<title></title>
</g>
<!-- q3 -->
<g id="node4" class="node">
<title>q3</title>
<ellipse fill="none" stroke="black" cx="110.5" cy="-44.5" rx="19.5" ry="19.5"/>
<text text-anchor="middle" x="110.5" y="-40.8" font-family="Times,serif" font-size="14.00">q3</text>
</g>
<!-- &#45;&gt;q3 -->
<g id="edge5" class="edge">
<title>&#45;&gt;q3</title>
<path fill="none" stroke="red" d="M54.24,-44.5C62.7,-44.5 72.14,-44.5 80.77,-44.5"/>
<polygon fill="red" stroke="red" points="80.8,-48 90.8,-44.5 80.8,-41 80.8,-48"/>
</g>
<!-- q4 -->
<g id="node5" class="node">
<title>q4</title>
<ellipse fill="none" stroke="black" cx="278.49" cy="-47.5" rx="19.5" ry="19.5"/>
<ellipse fill="none" stroke="black" cx="278.49" cy="-47.5" rx="23.5" ry="23.5"/>
<text text-anchor="middle" x="278.49" y="-43.8" font-family="Times,serif" font-size="14.00">q4</text>
</g>
<!-- q3&#45;&gt;q4 -->
<g id="edge6" class="edge">
<title>q3&#45;&gt;q4</title>
<path fill="none" stroke="black" d="M129.56,-49.27C135.4,-50.59 141.93,-51.84 148,-52.5 187.32,-56.76 197.51,-54.93 236.99,-52.5 239.53,-52.34 242.15,-52.13 244.78,-51.89"/>
<polygon fill="black" stroke="black" points="245.27,-55.35 254.83,-50.79 244.51,-48.39 245.27,-55.35"/>
<text text-anchor="middle" x="192.49" y="-59.3" font-family="Times,serif" font-size="14.00">a</text>
</g>
<!-- q1 -->
<g id="node6" class="node">
<title>q1</title>
<ellipse fill="none" stroke="black" cx="192.49" cy="-19.5" rx="19.5" ry="19.5"/>
<text text-anchor="middle" x="192.49" y="-15.8" font-family="Times,serif" font-size="14.00">q1</text>
</g>
<!-- q3&#45;&gt;q1 -->
<g id="edge7" class="edge">
<title>q3&#45;&gt;q1</title>
<path fill="none" stroke="black" d="M129.25,-38.95C139.51,-35.75 152.62,-31.65 164.16,-28.04"/>
<polygon fill="black" stroke="black" points="165.29,-31.35 173.79,-25.03 163.2,-24.67 165.29,-31.35"/>
<text text-anchor="middle" x="151.5" y="-37.3" font-family="Times,serif" font-size="14.00">b</text>
</g>
<!-- q4&#45;&gt;q2 -->
<g id="edge8" class="edge">
<title>q4&#45;&gt;q2</title>
<path fill="none" stroke="black" d="M297.3,-62.34C310.07,-72.98 327.35,-87.38 341.05,-98.8"/>
<polygon fill="black" stroke="black" points="339.13,-101.75 349.05,-105.46 343.61,-96.37 339.13,-101.75"/>
<text text-anchor="middle" x="323.49" y="-91.3" font-family="Times,serif" font-size="14.00">a</text>
</g>
<!-- q4&#45;&gt;q4 -->
<g id="edge9" class="edge">
<title>q4&#45;&gt;q4</title>
<path fill="none" stroke="black" d="M270.4,-69.7C269.52,-80 272.22,-89 278.49,-89 282.51,-89 285.06,-85.3 286.14,-79.94"/>
<polygon fill="black" stroke="black" points="289.65,-79.84 286.58,-69.7 282.66,-79.54 289.65,-79.84"/>
<text text-anchor="middle" x="278.49" y="-92.8" font-family="Times,serif" font-size="14.00">b</text>
</g>
<!-- q1&#45;&gt;q3 -->
<g id="edge11" class="edge">
<title>q1&#45;&gt;q3</title>
<path fill="none" stroke="black" d="M174.15,-12.7C166.01,-10.52 156.3,-9.37 148,-12.5 142.03,-14.74 136.41,-18.45 131.45,-22.56"/>
<polygon fill="black" stroke="black" points="128.72,-20.32 123.77,-29.68 133.48,-25.45 128.72,-20.32"/>
<text text-anchor="middle" x="151.5" y="-16.3" font-family="Times,serif" font-size="14.00">b</text>
</g>
<!-- q1&#45;&gt;q4 -->
<g id="edge10" class="edge">
<title>q1&#45;&gt;q4</title>
<path fill="none" stroke="black" d="M211.31,-25.44C221.47,-28.82 234.49,-33.16 246.29,-37.1"/>
<polygon fill="black" stroke="black" points="245.23,-40.43 255.83,-40.28 247.45,-33.79 245.23,-40.43"/>
<text text-anchor="middle" x="233.49" y="-37.3" font-family="Times,serif" font-size="14.00">a</text>
</g>
</g>
</svg>
