<svg width="556px" height="191px"
 viewBox="0.00 0.00 555.98 191.43" xmlns="http://www.w3.org/2000/svg" xmlns:xlink="http://www.w3.org/1999/xlink">
<g id="graph0" class="graph" transform="scale(1.0 1.0) rotate(0.0) translate(4.0 187.43)">
<title>DFA</title>
<polygon fill="white" stroke="transparent" points="-4,4 -4,-187.43 551.98,-187.43 551.98,4 -4,4"/>
<!-- q0 -->
<g id="node1" class="node">
<title>q0</title>
<ellipse fill="none" stroke="black" cx="356.49" cy="-81.43" rx="19.5" ry="19.5"/>
<text text-anchor="middle" x="356.49" y="-77.73" font-family="Times,serif" font-size="14.00">q0</text>
</g>
<!-- q0&#45;&gt;q0 -->
<g id="edge2" class="edge">
<title>q0&#45;&gt;q0</title>
<path fill="none" stroke="black" d="M349.3,-99.95C348.08,-109.88 350.47,-118.93 356.49,-118.93 360.25,-118.93 362.59,-115.39 363.53,-110.32"/>
<polygon fill="black" stroke="black" points="367.03,-110 363.68,-99.95 360.03,-109.9 367.03,-110"/>
<text text-anchor="middle" x="356.49" y="-122.73" font-family="Times,serif" font-size="14.00">b</text>
</g>
<!-- q1 -->
<g id="node2" class="node">
<title>q1</title>
<ellipse fill="none" stroke="black" cx="442.48" cy="-81.43" rx="19.5" ry="19.5"/>
<ellipse fill="none" stroke="black" cx="442.48" cy="-81.43" rx="23.5" ry="23.5"/>
<text text-anchor="middle" x="442.48" y="-77.73" font-family="Times,serif" font-size="14.00">q1</text>
</g>
<!-- q0&#45;&gt;q1 -->
<g id="edge1" class="edge">
<title>q0&#45;&gt;q1</title>
<path fill="none" stroke="black" d="M376.13,-81.43C385.65,-81.43 397.52,-81.43 408.53,-81.43"/>
<polygon fill="black" stroke="black" points="408.71,-84.93 418.71,-81.43 408.71,-77.93 408.71,-84.93"/>
<text text-anchor="middle" x="397.49" y="-85.23" font-family="Times,serif" font-size="14.00">a</text>
</g>
<!-- q3 -->
<g id="node3" class="node">
<title>q3</title>
<ellipse fill="none" stroke="black" cx="528.48" cy="-140.43" rx="19.5" ry="19.5"/>
<text text-anchor="middle" x="528.48" y="-136.73" font-family="Times,serif" font-size="14.00">q3</text>
</g>
<!-- q1&#45;&gt;q3 -->
<g id="edge3" class="edge">
<title>q1&#45;&gt;q3</title>
<path fill="none" stroke="black" d="M463.21,-93.23C471.87,-98.57 482.08,-105.11 490.98,-111.43 495.6,-114.71 500.42,-118.36 504.99,-121.94"/>
<polygon fill="black" stroke="black" points="502.84,-124.71 512.84,-128.21 507.21,-119.23 502.84,-124.71"/>
<text text-anchor="middle" x="487.48" y="-115.23" font-family="Times,serif" font-size="14.00">a</text>
</g>
<!-- q4 -->
<g id="node4" class="node">
<title>q4</title>
<ellipse fill="none" stroke="black" cx="528.48" cy="-25.43" rx="19.5" ry="19.5"/>
<text text-anchor="middle" x="528.48" y="-21.73" font-family="Times,serif" font-size="14.00">q4</text>
</g>
<!-- q1&#45;&gt;q4 -->
<g id="edge4" class="edge">
<title>q1&#45;&gt;q4</title>
<path fill="none" stroke="black" d="M462.54,-68.72C474.66,-60.65 490.44,-50.12 503.42,-41.47"/>
<polygon fill="black" stroke="black" points="505.49,-44.3 511.87,-35.84 501.61,-38.47 505.49,-44.3"/>
<text text-anchor="middle" x="487.48" y="-57.23" font-family="Times,serif" font-size="14.00">b</text>
</g>
<!-- q3&#45;&gt;q0 -->
<g id="edge5" class="edge">
<title>q3&#45;&gt;q0</title>
<path fill="none" stroke="black" d="M510.72,-148.9C483.29,-161.43 428.43,-180.74 393.99,-154.43 379.67,-143.49 370.57,-125.41 365.04,-109.98"/>
<polygon fill="black" stroke="black" points="368.32,-108.76 361.9,-100.33 361.66,-110.92 368.32,-108.76"/>
<text text-anchor="middle" x="442.48" y="-172.23" font-family="Times,serif" font-size="14.00">a</text>
</g>
<!-- q3&#45;&gt;q0 -->
<g id="edge6" class="edge">
<title>q3&#45;&gt;q0</title>
<path fill="none" stroke="black" d="M509.04,-137.22C487.12,-133.09 449.67,-125.04 418.99,-113.43 407.27,-109 405.1,-106.21 393.99,-100.43 390.55,-98.64 386.94,-96.76 383.37,-94.91"/>
<polygon fill="black" stroke="black" points="384.69,-91.65 374.2,-90.13 381.46,-97.86 384.69,-91.65"/>
<text text-anchor="middle" x="442.48" y="-132.23" font-family="Times,serif" font-size="14.00">b</text>
</g>
<!-- q4&#45;&gt;q0 -->
<g id="edge7" class="edge">
<title>q4&#45;&gt;q0</title>
<path fill="none" stroke="black" d="M508.73,-23.86C486.53,-22.7 448.79,-22.95 418.99,-34.43 403.85,-40.26 389.32,-51.04 378.18,-60.81"/>
<polygon fill="black" stroke="black" points="375.72,-58.32 370.71,-67.66 380.45,-63.48 375.72,-58.32"/>
<text text-anchor="middle" x="442.48" y="-38.23" font-family="Times,serif" font-size="14.00">a</text>
</g>
<!-- q4&#45;&gt;q0 -->
<g id="edge8" class="edge">
<title>q4&#45;&gt;q0</title>
<path fill="none" stroke="black" d="M510.85,-16.63C488.83,-6.25 449.23,7.88 418.99,-6.43 397.8,-16.46 381.47,-37.76 370.98,-55.11"/>
<polygon fill="black" stroke="black" points="367.68,-53.82 365.76,-64.24 373.76,-57.3 367.68,-53.82"/>
<text text-anchor="middle" x="442.48" y="-10.23" font-family="Times,serif" font-size="14.00">b</text>
</g>
<g id="node5" class="node">
<title></title>
</g>
<!-- q2 -->
<g id="node6" class="node">
<title>q2</title>
<ellipse fill="none" stroke="black" cx="110.5" cy="-116.43" rx="19.5" ry="19.5"/>
<text text-anchor="middle" x="110.5" y="-112.73" font-family="Times,serif" font-size="14.00">q2</text>
</g>
<!-- &#45;&gt;q2 -->
<g id="edge9" class="edge">
<title>&#45;&gt;q2</title>
<path fill="none" stroke="red" d="M54.24,-116.43C62.7,-116.43 72.14,-116.43 80.77,-116.43"/>
<polygon fill="red" stroke="red" points="80.8,-119.93 90.8,-116.43 80.8,-112.93 80.8,-119.93"/>
</g>
<!-- q2&#45;&gt;q0 -->
<g id="edge11" class="edge">
<title>q2&#45;&gt;q0</title>
<path fill="none" stroke="black" d="M129.56,-121.2C135.4,-122.52 141.93,-123.77 148,-124.43 151.09,-124.77 151.89,-124.54 155,-124.43 217.19,-122.25 233.71,-122.91 293.99,-107.43 306.02,-104.34 318.76,-99.28 329.5,-94.44"/>
<polygon fill="black" stroke="black" points="331.16,-97.53 338.73,-90.12 328.19,-91.19 331.16,-97.53"/>
<text text-anchor="middle" x="233.49" y="-124.23" font-family="Times,serif" font-size="14.00">b</text>
</g>
<!-- q6 -->
<g id="node7" class="node">
<title>q6</title>
<ellipse fill="none" stroke="black" cx="192.49" cy="-92.43" rx="19.5" ry="19.5"/>
<text text-anchor="middle" x="192.49" y="-88.73" font-family="Times,serif" font-size="14.00">q6</text>
</g>
<!-- q2&#45;&gt;q6 -->
<g id="edge10" class="edge">
<title>q2&#45;&gt;q6</title>
<path fill="none" stroke="black" d="M129.65,-110.98C139.74,-107.96 152.52,-104.12 163.83,-100.73"/>
<polygon fill="black" stroke="black" points="165.12,-104 173.69,-97.77 163.11,-97.29 165.12,-104"/>
<text text-anchor="middle" x="151.5" y="-109.23" font-family="Times,serif" font-size="14.00">a</text>
</g>
<!-- q6&#45;&gt;q0 -->
<g id="edge13" class="edge">
<title>q6&#45;&gt;q0</title>
<path fill="none" stroke="black" d="M212.08,-91.17C240.08,-89.27 293.33,-85.65 326.47,-83.4"/>
<polygon fill="black" stroke="black" points="327.13,-86.86 336.87,-82.69 326.66,-79.88 327.13,-86.86"/>
<text text-anchor="middle" x="274.49" y="-92.23" font-family="Times,serif" font-size="14.00">b</text>
</g>
<!-- q5 -->
<g id="node8" class="node">
<title>q5</title>
<ellipse fill="none" stroke="black" cx="274.49" cy="-41.43" rx="19.5" ry="19.5"/>
<text text-anchor="middle" x="274.49" y="-37.73" font-family="Times,serif" font-size="14.00">q5</text>
</g>
<!-- q6&#45;&gt;q5 -->
<g id="edge12" class="edge">
<title>q6&#45;&gt;q5</title>
<path fill="none" stroke="black" d="M208.98,-81.51C215.42,-77.05 223.01,-71.9 229.99,-67.43 235.97,-63.6 242.49,-59.61 248.63,-55.93"/>
<polygon fill="black" stroke="black" points="250.42,-58.94 257.23,-50.83 246.85,-52.92 250.42,-58.94"/>
<text text-anchor="middle" x="233.49" y="-71.23" font-family="Times,serif" font-size="14.00">a</text>
</g>
<!-- q5&#45;&gt;q0 -->
<g id="edge14" class="edge">
<title>q5&#45;&gt;q0</title>
<path fill="none" stroke="black" d="M291.39,-31.58C299.9,-27.63 310.37,-24.95 318.99,-29.43 329.48,-34.88 337.58,-44.89 343.46,-54.67"/>
<polygon fill="black" stroke="black" points="340.39,-56.35 348.24,-63.46 346.54,-53.01 340.39,-56.35"/>
<text text-anchor="middle" x="315.49" y="-33.23" font-family="Times,serif" font-size="14.00">a</text>
</g>
<!-- q5&#45;&gt;q0 -->
<g id="edge15" class="edge">
<title>q5&#45;&gt;q0</title>
<path fill="none" stroke="black" d="M292.46,-49.91C303.24,-55.31 317.41,-62.39 329.59,-68.48"/>
<polygon fill="black" stroke="black" points="328.31,-71.75 338.82,-73.1 331.44,-65.49 328.31,-71.75"/>
<text text-anchor="middle" x="315.49" y="-67.23" font-family="Times,serif" font-size="14.00">b</text>
</g>
</g>
</svg>
