<svg width="509px" height="171px"
 viewBox="0.00 0.00 509.08 171.00" xmlns="http://www.w3.org/2000/svg" xmlns:xlink="http://www.w3.org/1999/xlink">
<g id="graph0" class="graph" transform="scale(1.0 1.0) rotate(0.0) translate(4.0 167.0)">
<title>Minimaler DFA</title>
<polygon fill="white" stroke="transparent" points="-4,4 -4,-167 505.08,-167 505.08,4 -4,4"/>
<!-- q0 -->
<g id="node1" class="node">
<title>q0</title>
<ellipse fill="none" stroke="black" cx="274.49" cy="-74.5" rx="19.5" ry="19.5"/>
<text text-anchor="middle" x="274.49" y="-70.8" font-family="Times,serif" font-size="14.00">q0</text>
</g>
<!-- q0&#45;&gt;q0 -->
<g id="edge2" class="edge">
<title>q0&#45;&gt;q0</title>
<path fill="none" stroke="black" d="M267.3,-93.02C266.08,-102.95 268.48,-112 274.49,-112 278.25,-112 280.6,-108.46 281.53,-103.39"/>
<polygon fill="black" stroke="black" points="285.03,-103.07 281.68,-93.02 278.04,-102.97 285.03,-103.07"/>
<text text-anchor="middle" x="274.49" y="-115.8" font-family="Times,serif" font-size="14.00">b</text>
</g>
<!-- q1 -->
<g id="node2" class="node">
<title>q1</title>
<ellipse fill="none" stroke="black" cx="360.49" cy="-139.5" rx="19.5" ry="19.5"/>
<ellipse fill="none" stroke="black" cx="360.49" cy="-139.5" rx="23.5" ry="23.5"/>
<text text-anchor="middle" x="360.49" y="-135.8" font-family="Times,serif" font-size="14.00">q1</text>
</g>
<!-- q0&#45;&gt;q1 -->
<g id="edge1" class="edge">
<title>q0&#45;&gt;q1</title>
<path fill="none" stroke="black" d="M290.51,-86.12C302.42,-95.34 319.36,-108.44 333.47,-119.36"/>
<polygon fill="black" stroke="black" points="331.34,-122.14 341.39,-125.49 335.62,-116.6 331.34,-122.14"/>
<text text-anchor="middle" x="315.49" y="-110.3" font-family="Times,serif" font-size="14.00">a</text>
</g>
<!-- q3q4q5 -->
<g id="node3" class="node">
<title>q3q4q5</title>
<ellipse fill="none" stroke="black" cx="464.03" cy="-83.5" rx="37.09" ry="37.09"/>
<text text-anchor="middle" x="464.03" y="-79.8" font-family="Times,serif" font-size="14.00">q3q4q5</text>
</g>
<!-- q1&#45;&gt;q3q4q5 -->
<g id="edge3" class="edge">
<title>q1&#45;&gt;q3q4q5</title>
<path fill="none" stroke="black" d="M384.03,-138.89C392.2,-137.98 401.3,-136.13 408.99,-132.5 416.89,-128.76 424.46,-123.48 431.3,-117.76"/>
<polygon fill="black" stroke="black" points="433.84,-120.18 438.97,-110.91 429.18,-114.96 433.84,-120.18"/>
<text text-anchor="middle" x="405.49" y="-138.3" font-family="Times,serif" font-size="14.00">a</text>
</g>
<!-- q1&#45;&gt;q3q4q5 -->
<g id="edge4" class="edge">
<title>q1&#45;&gt;q3q4q5</title>
<path fill="none" stroke="black" d="M380.58,-126.61C387.25,-122.28 394.86,-117.52 401.99,-113.5 408,-110.11 414.45,-106.7 420.82,-103.46"/>
<polygon fill="black" stroke="black" points="422.66,-106.45 430.04,-98.86 419.53,-100.19 422.66,-106.45"/>
<text text-anchor="middle" x="405.49" y="-117.3" font-family="Times,serif" font-size="14.00">b</text>
</g>
<!-- q3q4q5&#45;&gt;q0 -->
<g id="edge5" class="edge">
<title>q3q4q5&#45;&gt;q0</title>
<path fill="none" stroke="black" d="M426.86,-81.76C391.2,-80.05 337.4,-77.47 304.47,-75.89"/>
<polygon fill="black" stroke="black" points="304.32,-72.38 294.16,-75.39 303.98,-79.37 304.32,-72.38"/>
<text text-anchor="middle" x="360.49" y="-83.3" font-family="Times,serif" font-size="14.00">a</text>
</g>
<!-- q3q4q5&#45;&gt;q0 -->
<g id="edge6" class="edge">
<title>q3q4q5&#45;&gt;q0</title>
<path fill="none" stroke="black" d="M429.34,-70.34C415.51,-65.6 399.21,-60.85 383.99,-58.5 363.34,-55.31 357.71,-55.85 336.99,-58.5 325.75,-59.94 313.62,-62.8 303.13,-65.71"/>
<polygon fill="black" stroke="black" points="301.9,-62.42 293.28,-68.58 303.86,-69.14 301.9,-62.42"/>
<text text-anchor="middle" x="360.49" y="-62.3" font-family="Times,serif" font-size="14.00">b</text>
</g>
<g id="node4" class="node">
<title></title>
</g>
<!-- q2 -->
<g id="node5" class="node">
<title>q2</title>
<ellipse fill="none" stroke="black" cx="110.5" cy="-47.5" rx="19.5" ry="19.5"/>
<text text-anchor="middle" x="110.5" y="-43.8" font-family="Times,serif" font-size="14.00">q2</text>
</g>
<!-- &#45;&gt;q2 -->
<g id="edge7" class="edge">
<title>&#45;&gt;q2</title>
<path fill="none" stroke="red" d="M54.24,-47.5C62.7,-47.5 72.14,-47.5 80.77,-47.5"/>
<polygon fill="red" stroke="red" points="80.8,-51 90.8,-47.5 80.8,-44 80.8,-51"/>
</g>
<!-- q2&#45;&gt;q0 -->
<g id="edge9" class="edge">
<title>q2&#45;&gt;q0</title>
<path fill="none" stroke="black" d="M129.77,-50.54C157.84,-55.22 211.82,-64.22 245.04,-69.76"/>
<polygon fill="black" stroke="black" points="244.6,-73.23 255.04,-71.42 245.75,-66.33 244.6,-73.23"/>
<text text-anchor="middle" x="192.49" y="-67.3" font-family="Times,serif" font-size="14.00">b</text>
</g>
<!-- q6 -->
<g id="node6" class="node">
<title>q6</title>
<ellipse fill="none" stroke="black" cx="192.49" cy="-19.5" rx="19.5" ry="19.5"/>
<text text-anchor="middle" x="192.49" y="-15.8" font-family="Times,serif" font-size="14.00">q6</text>
</g>
<!-- q2&#45;&gt;q6 -->
<g id="edge8" class="edge">
<title>q2&#45;&gt;q6</title>
<path fill="none" stroke="black" d="M129.25,-41.28C139.51,-37.7 152.62,-33.11 164.16,-29.07"/>
<polygon fill="black" stroke="black" points="165.51,-32.3 173.79,-25.7 163.2,-25.7 165.51,-32.3"/>
<text text-anchor="middle" x="151.5" y="-38.3" font-family="Times,serif" font-size="14.00">a</text>
</g>
<!-- q6&#45;&gt;q0 -->
<g id="edge11" class="edge">
<title>q6&#45;&gt;q0</title>
<path fill="none" stroke="black" d="M209.93,-28.63C218.21,-33.4 228.31,-39.49 236.99,-45.5 241.65,-48.72 246.49,-52.35 251.07,-55.92"/>
<polygon fill="black" stroke="black" points="248.92,-58.68 258.91,-62.19 253.28,-53.21 248.92,-58.68"/>
<text text-anchor="middle" x="233.49" y="-49.3" font-family="Times,serif" font-size="14.00">b</text>
</g>
<!-- q6&#45;&gt;q3q4q5 -->
<g id="edge10" class="edge">
<title>q6&#45;&gt;q3q4q5</title>
<path fill="none" stroke="black" d="M212.19,-20.69C250.24,-23.57 339.02,-32.59 408.99,-57.5 413.18,-58.99 417.49,-60.71 421.74,-62.54"/>
<polygon fill="black" stroke="black" points="420.37,-65.76 430.93,-66.68 423.25,-59.38 420.37,-65.76"/>
<text text-anchor="middle" x="315.49" y="-38.3" font-family="Times,serif" font-size="14.00">a</text>
</g>
</g>
</svg>
