<svg width="442px" height="216px"
 viewBox="0.00 0.00 442.38 215.60" xmlns="http://www.w3.org/2000/svg" xmlns:xlink="http://www.w3.org/1999/xlink">
<g id="graph0" class="graph" transform="scale(1.0 1.0) rotate(0.0) translate(4.0 211.6)">
<title>Minimaler DFA</title>
<polygon fill="white" stroke="transparent" points="-4,4 -4,-211.6 438.38,-211.6 438.38,4 -4,4"/>
<!-- q0 -->
<g id="node1" class="node">
<title>q0</title>
<ellipse fill="none" stroke="black" cx="23.5" cy="-126" rx="19.5" ry="19.5"/>
<ellipse fill="none" stroke="black" cx="23.5" cy="-126" rx="23.5" ry="23.5"/>
<text text-anchor="middle" x="23.5" y="-122.3" font-family="Times,serif" font-size="14.00">q0</text>
</g>
<!-- q4q6 -->
<g id="node2" class="node">
<title>q4q6</title>
<ellipse fill="none" stroke="black" cx="118.59" cy="-179" rx="28.7" ry="28.7"/>
<text text-anchor="middle" x="118.59" y="-175.3" font-family="Times,serif" font-size="14.00">q4q6</text>
</g>
<!-- q0&#45;&gt;q4q6 -->
<g id="edge1" class="edge">
<title>q0&#45;&gt;q4q6</title>
<path fill="none" stroke="black" d="M41.34,-141.76C48.3,-147.71 56.67,-154.19 65,-159 70.2,-162 75.94,-164.72 81.66,-167.11"/>
<polygon fill="black" stroke="black" points="80.57,-170.44 91.16,-170.82 83.12,-163.92 80.57,-170.44"/>
<text text-anchor="middle" x="68.5" y="-165.8" font-family="Times,serif" font-size="14.00">a</text>
</g>
<!-- q3q5 -->
<g id="node3" class="node">
<title>q3q5</title>
<ellipse fill="none" stroke="black" cx="222.79" cy="-107" rx="28.68" ry="28.68"/>
<ellipse fill="none" stroke="black" cx="222.79" cy="-107" rx="32.7" ry="32.7"/>
<text text-anchor="middle" x="222.79" y="-103.3" font-family="Times,serif" font-size="14.00">q3q5</text>
</g>
<!-- q0&#45;&gt;q3q5 -->
<g id="edge2" class="edge">
<title>q0&#45;&gt;q3q5</title>
<path fill="none" stroke="black" d="M47.13,-123.82C79.44,-120.71 139.35,-114.94 179.89,-111.04"/>
<polygon fill="black" stroke="black" points="180.39,-114.5 190.01,-110.06 179.72,-107.54 180.39,-114.5"/>
<text text-anchor="middle" x="118.59" y="-122.8" font-family="Times,serif" font-size="14.00">b</text>
</g>
<!-- q4q6&#45;&gt;q0 -->
<g id="edge3" class="edge">
<title>q4q6&#45;&gt;q0</title>
<path fill="none" stroke="black" d="M97.63,-158.74C90.11,-152.01 81.15,-144.97 72,-140 67.3,-137.45 62.08,-135.32 56.88,-133.54"/>
<polygon fill="black" stroke="black" points="57.6,-130.1 47.02,-130.56 55.58,-136.81 57.6,-130.1"/>
<text text-anchor="middle" x="68.5" y="-143.8" font-family="Times,serif" font-size="14.00">a</text>
</g>
<!-- q4q6&#45;&gt;q3q5 -->
<g id="edge4" class="edge">
<title>q4q6&#45;&gt;q3q5</title>
<path fill="none" stroke="black" d="M142.53,-162.84C155.71,-153.55 172.53,-141.7 187.29,-131.31"/>
<polygon fill="black" stroke="black" points="189.53,-134.01 195.69,-125.39 185.5,-128.29 189.53,-134.01"/>
<text text-anchor="middle" x="168.69" y="-148.8" font-family="Times,serif" font-size="14.00">b</text>
</g>
<!-- q3q5&#45;&gt;q0 -->
<g id="edge5" class="edge">
<title>q3q5&#45;&gt;q0</title>
<path fill="none" stroke="black" d="M191.08,-98.88C164.14,-93.01 124.07,-87.34 90,-95 77.24,-97.87 64.05,-103.51 52.88,-109.21"/>
<polygon fill="black" stroke="black" points="51.19,-106.14 44.02,-113.95 54.49,-112.32 51.19,-106.14"/>
<text text-anchor="middle" x="118.59" y="-98.8" font-family="Times,serif" font-size="14.00">a</text>
</g>
<!-- q1 -->
<g id="node4" class="node">
<title>q1</title>
<ellipse fill="none" stroke="black" cx="325.39" cy="-124" rx="19.5" ry="19.5"/>
<text text-anchor="middle" x="325.39" y="-120.3" font-family="Times,serif" font-size="14.00">q1</text>
</g>
<!-- q3q5&#45;&gt;q1 -->
<g id="edge6" class="edge">
<title>q3q5&#45;&gt;q1</title>
<path fill="none" stroke="black" d="M253.98,-116.64C260.33,-118.35 267.03,-119.93 273.39,-121 280.56,-122.21 288.36,-122.95 295.66,-123.4"/>
<polygon fill="black" stroke="black" points="295.71,-126.91 305.87,-123.87 296.04,-119.91 295.71,-126.91"/>
<text text-anchor="middle" x="276.89" y="-125.8" font-family="Times,serif" font-size="14.00">b</text>
</g>
<!-- q1&#45;&gt;q3q5 -->
<g id="edge7" class="edge">
<title>q1&#45;&gt;q3q5</title>
<path fill="none" stroke="black" d="M308.36,-113.73C300.31,-109.17 290.19,-104.32 280.39,-102 275.41,-100.83 270.14,-100.33 264.88,-100.29"/>
<polygon fill="black" stroke="black" points="264.73,-96.79 254.89,-100.71 265.03,-103.79 264.73,-96.79"/>
<text text-anchor="middle" x="276.89" y="-105.8" font-family="Times,serif" font-size="14.00">a</text>
</g>
<!-- q2 -->
<g id="node5" class="node">
<title>q2</title>
<ellipse fill="none" stroke="black" cx="414.88" cy="-98" rx="19.5" ry="19.5"/>
<text text-anchor="middle" x="414.88" y="-94.3" font-family="Times,serif" font-size="14.00">q2</text>
</g>
<!-- q1&#45;&gt;q2 -->
<g id="edge8" class="edge">
<title>q1&#45;&gt;q2</title>
<path fill="none" stroke="black" d="M344.52,-118.61C356.56,-115.03 372.61,-110.26 386.24,-106.22"/>
<polygon fill="black" stroke="black" points="387.49,-109.49 396.08,-103.29 385.49,-102.78 387.49,-109.49"/>
<text text-anchor="middle" x="373.89" y="-113.8" font-family="Times,serif" font-size="14.00">b</text>
</g>
<!-- q2&#45;&gt;q4q6 -->
<g id="edge10" class="edge">
<title>q2&#45;&gt;q4q6</title>
<path fill="none" stroke="black" d="M401.9,-112.66C390.58,-125.38 372.38,-143.12 352.39,-152 288.26,-180.48 204.89,-182.84 157.3,-181.35"/>
<polygon fill="black" stroke="black" points="157.27,-177.85 147.14,-180.96 157,-184.84 157.27,-177.85"/>
<text text-anchor="middle" x="276.89" y="-177.8" font-family="Times,serif" font-size="14.00">b</text>
</g>
<!-- q2&#45;&gt;q3q5 -->
<g id="edge9" class="edge">
<title>q2&#45;&gt;q3q5</title>
<path fill="none" stroke="black" d="M396.39,-91.8C384.22,-87.83 367.53,-83.06 352.39,-81 328.6,-77.77 322.05,-76.99 298.39,-81 286.46,-83.02 273.9,-86.73 262.56,-90.73"/>
<polygon fill="black" stroke="black" points="261.12,-87.53 252.95,-94.28 263.55,-94.1 261.12,-87.53"/>
<text text-anchor="middle" x="325.39" y="-84.8" font-family="Times,serif" font-size="14.00">a</text>
</g>
<g id="node6" class="node">
<title></title>
</g>
<!-- &#45;&gt;q2 -->
<g id="edge11" class="edge">
<title>&#45;&gt;q2</title>
<path fill="none" stroke="red" d="M351.19,-36.13C359.74,-42.72 369.22,-50.42 377.39,-58 383.26,-63.45 389.27,-69.71 394.67,-75.63"/>
<polygon fill="red" stroke="red" points="392.33,-78.26 401.6,-83.39 397.55,-73.6 392.33,-78.26"/>
</g>
</g>
</svg>
