<svg width="424px" height="189px"
 viewBox="0.00 0.00 424.18 189.20" xmlns="http://www.w3.org/2000/svg" xmlns:xlink="http://www.w3.org/1999/xlink">
<g id="graph0" class="graph" transform="scale(1.0 1.0) rotate(0.0) translate(4.0 185.2)">
<title>Minimaler DFA</title>
<polygon fill="white" stroke="transparent" points="-4,4 -4,-185.2 420.18,-185.2 420.18,4 -4,4"/>
<!-- q0 -->
<g id="node1" class="node">
<title>q0</title>
<ellipse fill="none" stroke="black" cx="27" cy="-117.2" rx="19.5" ry="19.5"/>
<text text-anchor="middle" x="27" y="-113.5" font-family="Times,serif" font-size="14.00">q0</text>
</g>
<!-- q5 -->
<g id="node2" class="node">
<title>q5</title>
<ellipse fill="none" stroke="black" cx="120.5" cy="-54.2" rx="19.5" ry="19.5"/>
<ellipse fill="none" stroke="black" cx="120.5" cy="-54.2" rx="23.5" ry="23.5"/>
<text text-anchor="middle" x="120.5" y="-50.5" font-family="Times,serif" font-size="14.00">q5</text>
</g>
<!-- q0&#45;&gt;q5 -->
<g id="edge1" class="edge">
<title>q0&#45;&gt;q5</title>
<path fill="none" stroke="black" d="M43.52,-106.52C56.86,-97.33 76.4,-83.88 92.32,-72.92"/>
<polygon fill="black" stroke="black" points="94.48,-75.68 100.73,-67.13 90.51,-69.91 94.48,-75.68"/>
<text text-anchor="middle" x="75.5" y="-90" font-family="Times,serif" font-size="14.00">a</text>
</g>
<!-- q3 -->
<g id="node5" class="node">
<title>q3</title>
<ellipse fill="none" stroke="black" cx="396.69" cy="-92.2" rx="19.5" ry="19.5"/>
<text text-anchor="middle" x="396.69" y="-88.5" font-family="Times,serif" font-size="14.00">q3</text>
</g>
<!-- q0&#45;&gt;q3 -->
<g id="edge2" class="edge">
<title>q0&#45;&gt;q3</title>
<path fill="none" stroke="black" d="M41.67,-130.08C58.57,-144.6 88.86,-166.2 119.5,-166.2 119.5,-166.2 119.5,-166.2 302.59,-166.2 335.22,-166.2 363.04,-138.01 379.55,-116.42"/>
<polygon fill="black" stroke="black" points="382.44,-118.4 385.52,-108.26 376.79,-114.27 382.44,-118.4"/>
<text text-anchor="middle" x="206.49" y="-170" font-family="Times,serif" font-size="14.00">b</text>
</g>
<!-- q4 -->
<g id="node3" class="node">
<title>q4</title>
<ellipse fill="none" stroke="black" cx="206.49" cy="-109.2" rx="19.5" ry="19.5"/>
<text text-anchor="middle" x="206.49" y="-105.5" font-family="Times,serif" font-size="14.00">q4</text>
</g>
<!-- q5&#45;&gt;q4 -->
<g id="edge3" class="edge">
<title>q5&#45;&gt;q4</title>
<path fill="none" stroke="black" d="M140.56,-66.68C152.67,-74.62 168.46,-84.95 181.43,-93.45"/>
<polygon fill="black" stroke="black" points="179.6,-96.43 189.88,-98.98 183.43,-90.58 179.6,-96.43"/>
<text text-anchor="middle" x="165.5" y="-89" font-family="Times,serif" font-size="14.00">a</text>
</g>
<!-- q1q2 -->
<g id="node4" class="node">
<title>q1q2</title>
<ellipse fill="none" stroke="black" cx="301.59" cy="-54.2" rx="28.68" ry="28.68"/>
<ellipse fill="none" stroke="black" cx="301.59" cy="-54.2" rx="32.7" ry="32.7"/>
<text text-anchor="middle" x="301.59" y="-50.5" font-family="Times,serif" font-size="14.00">q1q2</text>
</g>
<!-- q5&#45;&gt;q1q2 -->
<g id="edge4" class="edge">
<title>q5&#45;&gt;q1q2</title>
<path fill="none" stroke="black" d="M144.18,-54.2C172.88,-54.2 222.87,-54.2 258.61,-54.2"/>
<polygon fill="black" stroke="black" points="258.74,-57.7 268.74,-54.2 258.74,-50.7 258.74,-57.7"/>
<text text-anchor="middle" x="206.49" y="-58" font-family="Times,serif" font-size="14.00">b</text>
</g>
<!-- q4&#45;&gt;q0 -->
<g id="edge6" class="edge">
<title>q4&#45;&gt;q0</title>
<path fill="none" stroke="black" d="M186.82,-110.05C155.78,-111.44 93.38,-114.26 56.71,-115.91"/>
<polygon fill="black" stroke="black" points="56.49,-112.42 46.66,-116.36 56.81,-119.41 56.49,-112.42"/>
<text text-anchor="middle" x="120.5" y="-117" font-family="Times,serif" font-size="14.00">b</text>
</g>
<!-- q4&#45;&gt;q1q2 -->
<g id="edge5" class="edge">
<title>q4&#45;&gt;q1q2</title>
<path fill="none" stroke="black" d="M223.71,-99.62C234.91,-93.01 250.25,-83.94 264.29,-75.65"/>
<polygon fill="black" stroke="black" points="266.43,-78.45 273.26,-70.35 262.87,-72.42 266.43,-78.45"/>
<text text-anchor="middle" x="247.49" y="-91" font-family="Times,serif" font-size="14.00">a</text>
</g>
<!-- q1q2&#45;&gt;q3 -->
<g id="edge7" class="edge">
<title>q1q2&#45;&gt;q3</title>
<path fill="none" stroke="black" d="M332.05,-66.23C343.83,-71.04 357.31,-76.54 368.82,-81.24"/>
<polygon fill="black" stroke="black" points="367.76,-84.58 378.34,-85.12 370.4,-78.1 367.76,-84.58"/>
<text text-anchor="middle" x="355.69" y="-81" font-family="Times,serif" font-size="14.00">a</text>
</g>
<!-- q1q2&#45;&gt;q3 -->
<g id="edge8" class="edge">
<title>q1q2&#45;&gt;q3</title>
<path fill="none" stroke="black" d="M334.34,-51.98C342.7,-52.43 351.51,-53.88 359.19,-57.2 365.79,-60.06 371.91,-64.68 377.17,-69.64"/>
<polygon fill="black" stroke="black" points="374.78,-72.19 384.23,-76.97 379.82,-67.34 374.78,-72.19"/>
<text text-anchor="middle" x="355.69" y="-61" font-family="Times,serif" font-size="14.00">b</text>
</g>
<!-- q3&#45;&gt;q5 -->
<g id="edge9" class="edge">
<title>q3&#45;&gt;q5</title>
<path fill="none" stroke="black" d="M388.07,-74.61C378.61,-55.24 360.43,-25.13 334.19,-12.2 273.13,17.87 192.21,-15.5 149.95,-37.69"/>
<polygon fill="black" stroke="black" points="148.19,-34.66 141.06,-42.5 151.52,-40.82 148.19,-34.66"/>
<text text-anchor="middle" x="247.49" y="-8" font-family="Times,serif" font-size="14.00">a</text>
</g>
<!-- q3&#45;&gt;q4 -->
<g id="edge10" class="edge">
<title>q3&#45;&gt;q4</title>
<path fill="none" stroke="black" d="M377.13,-94.3C371.38,-94.93 365.02,-95.61 359.19,-96.2 311.14,-101.06 299.13,-102.32 250.99,-106.2 246.28,-106.58 241.28,-106.96 236.41,-107.3"/>
<polygon fill="black" stroke="black" points="235.86,-103.83 226.13,-108.01 236.35,-110.82 235.86,-103.83"/>
<text text-anchor="middle" x="301.59" y="-109" font-family="Times,serif" font-size="14.00">b</text>
</g>
<g id="node6" class="node">
<title></title>
</g>
<!-- &#45;&gt;q5 -->
<g id="edge11" class="edge">
<title>&#45;&gt;q5</title>
<path fill="none" stroke="red" d="M54.47,-54.2C64.52,-54.2 76.09,-54.2 86.67,-54.2"/>
<polygon fill="red" stroke="red" points="86.81,-57.7 96.81,-54.2 86.81,-50.7 86.81,-57.7"/>
</g>
</g>
</svg>
