<svg width="334px" height="268px"
 viewBox="0.00 0.00 334.19 268.50" xmlns="http://www.w3.org/2000/svg" xmlns:xlink="http://www.w3.org/1999/xlink">
<g id="graph0" class="graph" transform="scale(1.0 1.0) rotate(0.0) translate(4.0 264.5)">
<title>Minimaler DFA</title>
<polygon fill="white" stroke="transparent" points="-4,4 -4,-264.5 330.19,-264.5 330.19,4 -4,4"/>
<!-- q0 -->
<g id="node1" class="node">
<title>q0</title>
<ellipse fill="none" stroke="black" cx="27" cy="-213.5" rx="19.5" ry="19.5"/>
<text text-anchor="middle" x="27" y="-209.8" font-family="Times,serif" font-size="14.00">q0</text>
</g>
<!-- q1 -->
<g id="node2" class="node">
<title>q1</title>
<ellipse fill="none" stroke="black" cx="116.5" cy="-213.5" rx="19.5" ry="19.5"/>
<text text-anchor="middle" x="116.5" y="-209.8" font-family="Times,serif" font-size="14.00">q1</text>
</g>
<!-- q0&#45;&gt;q1 -->
<g id="edge1" class="edge">
<title>q0&#45;&gt;q1</title>
<path fill="none" stroke="black" d="M46.56,-213.5C58.27,-213.5 73.65,-213.5 86.9,-213.5"/>
<polygon fill="black" stroke="black" points="86.97,-217 96.97,-213.5 86.97,-210 86.97,-217"/>
<text text-anchor="middle" x="75.5" y="-217.3" font-family="Times,serif" font-size="14.00">a</text>
</g>
<!-- q4 -->
<g id="node5" class="node">
<title>q4</title>
<ellipse fill="none" stroke="black" cx="211.59" cy="-19.5" rx="19.5" ry="19.5"/>
<text text-anchor="middle" x="211.59" y="-15.8" font-family="Times,serif" font-size="14.00">q4</text>
</g>
<!-- q0&#45;&gt;q4 -->
<g id="edge2" class="edge">
<title>q0&#45;&gt;q4</title>
<path fill="none" stroke="black" d="M43.99,-203.22C75.25,-182.92 143,-137.77 161,-116.5 172.55,-102.84 170.88,-96.44 179,-80.5 184.85,-68.99 191.41,-56.3 197.02,-45.49"/>
<polygon fill="black" stroke="black" points="200.16,-47.04 201.68,-36.56 193.95,-43.81 200.16,-47.04"/>
<text text-anchor="middle" x="116.5" y="-170.3" font-family="Times,serif" font-size="14.00">b</text>
</g>
<!-- q3q6 -->
<g id="node3" class="node">
<title>q3q6</title>
<ellipse fill="none" stroke="black" cx="211.59" cy="-122.5" rx="28.68" ry="28.68"/>
<ellipse fill="none" stroke="black" cx="211.59" cy="-122.5" rx="32.7" ry="32.7"/>
<text text-anchor="middle" x="211.59" y="-118.8" font-family="Times,serif" font-size="14.00">q3q6</text>
</g>
<!-- q1&#45;&gt;q3q6 -->
<g id="edge3" class="edge">
<title>q1&#45;&gt;q3q6</title>
<path fill="none" stroke="black" d="M131.23,-200.07C144.13,-187.47 163.86,-168.18 180.42,-151.99"/>
<polygon fill="black" stroke="black" points="183.07,-154.3 187.77,-144.81 178.17,-149.29 183.07,-154.3"/>
<text text-anchor="middle" x="157.5" y="-179.3" font-family="Times,serif" font-size="14.00">a</text>
</g>
<!-- q5 -->
<g id="node4" class="node">
<title>q5</title>
<ellipse fill="none" stroke="black" cx="306.69" cy="-198.5" rx="19.5" ry="19.5"/>
<text text-anchor="middle" x="306.69" y="-194.8" font-family="Times,serif" font-size="14.00">q5</text>
</g>
<!-- q1&#45;&gt;q5 -->
<g id="edge4" class="edge">
<title>q1&#45;&gt;q5</title>
<path fill="none" stroke="black" d="M136.23,-212.01C169.2,-209.38 237.81,-203.91 276.86,-200.8"/>
<polygon fill="black" stroke="black" points="277.34,-204.27 287.03,-199.99 276.79,-197.29 277.34,-204.27"/>
<text text-anchor="middle" x="211.59" y="-211.3" font-family="Times,serif" font-size="14.00">b</text>
</g>
<!-- q3q6&#45;&gt;q3q6 -->
<g id="edge6" class="edge">
<title>q3q6&#45;&gt;q3q6</title>
<path fill="none" stroke="black" d="M201.47,-153.63C201.36,-164.4 204.74,-173.1 211.59,-173.1 216.09,-173.1 219.09,-169.35 220.59,-163.73"/>
<polygon fill="black" stroke="black" points="224.09,-163.95 221.72,-153.63 217.13,-163.18 224.09,-163.95"/>
<text text-anchor="middle" x="211.59" y="-176.9" font-family="Times,serif" font-size="14.00">b</text>
</g>
<!-- q3q6&#45;&gt;q5 -->
<g id="edge5" class="edge">
<title>q3q6&#45;&gt;q5</title>
<path fill="none" stroke="black" d="M237.54,-142.86C251.73,-154.44 269.35,-168.83 283.12,-180.07"/>
<polygon fill="black" stroke="black" points="281.17,-183 291.13,-186.61 285.6,-177.58 281.17,-183"/>
<text text-anchor="middle" x="265.69" y="-170.3" font-family="Times,serif" font-size="14.00">a</text>
</g>
<!-- q5&#45;&gt;q0 -->
<g id="edge7" class="edge">
<title>q5&#45;&gt;q0</title>
<path fill="none" stroke="black" d="M289.24,-207.64C277.15,-213.95 260.11,-221.99 244.19,-226.5 180.93,-244.43 161.78,-252.8 97,-241.5 81.98,-238.88 66.15,-232.73 53.45,-226.86"/>
<polygon fill="black" stroke="black" points="54.94,-223.69 44.42,-222.49 51.89,-229.99 54.94,-223.69"/>
<text text-anchor="middle" x="157.5" y="-249.3" font-family="Times,serif" font-size="14.00">a</text>
</g>
<!-- q5&#45;&gt;q5 -->
<g id="edge8" class="edge">
<title>q5&#45;&gt;q5</title>
<path fill="none" stroke="black" d="M299.5,-217.02C298.28,-226.95 300.67,-236 306.69,-236 310.45,-236 312.8,-232.46 313.73,-227.39"/>
<polygon fill="black" stroke="black" points="317.23,-227.07 313.88,-217.02 310.23,-226.97 317.23,-227.07"/>
<text text-anchor="middle" x="306.69" y="-239.8" font-family="Times,serif" font-size="14.00">b</text>
</g>
<!-- q4&#45;&gt;q5 -->
<g id="edge10" class="edge">
<title>q4&#45;&gt;q5</title>
<path fill="none" stroke="black" d="M221.52,-36.66C237.86,-68.07 272.65,-134.97 292,-172.17"/>
<polygon fill="black" stroke="black" points="289.07,-174.13 296.79,-181.39 295.28,-170.9 289.07,-174.13"/>
<text text-anchor="middle" x="265.69" y="-128.3" font-family="Times,serif" font-size="14.00">b</text>
</g>
<!-- q4&#45;&gt;q4 -->
<g id="edge9" class="edge">
<title>q4&#45;&gt;q4</title>
<path fill="none" stroke="black" d="M202.1,-36.86C199.99,-47.23 203.16,-57 211.59,-57 217.13,-57 220.4,-52.79 221.39,-46.97"/>
<polygon fill="black" stroke="black" points="224.89,-46.75 221.09,-36.86 217.89,-46.96 224.89,-46.75"/>
<text text-anchor="middle" x="211.59" y="-60.8" font-family="Times,serif" font-size="14.00">a</text>
</g>
<g id="node6" class="node">
<title></title>
</g>
<!-- q2 -->
<g id="node7" class="node">
<title>q2</title>
<ellipse fill="none" stroke="black" cx="116.5" cy="-76.5" rx="19.5" ry="19.5"/>
<text text-anchor="middle" x="116.5" y="-72.8" font-family="Times,serif" font-size="14.00">q2</text>
</g>
<!-- &#45;&gt;q2 -->
<g id="edge11" class="edge">
<title>&#45;&gt;q2</title>
<path fill="none" stroke="red" d="M54.25,-76.5C64.41,-76.5 76.08,-76.5 86.49,-76.5"/>
<polygon fill="red" stroke="red" points="86.77,-80 96.77,-76.5 86.77,-73 86.77,-80"/>
</g>
<!-- q2&#45;&gt;q3q6 -->
<g id="edge12" class="edge">
<title>q2&#45;&gt;q3q6</title>
<path fill="none" stroke="black" d="M134.57,-84.94C145.32,-90.25 159.63,-97.32 172.93,-103.89"/>
<polygon fill="black" stroke="black" points="171.41,-107.04 181.93,-108.33 174.51,-100.77 171.41,-107.04"/>
<text text-anchor="middle" x="157.5" y="-101.3" font-family="Times,serif" font-size="14.00">a</text>
</g>
<!-- q2&#45;&gt;q4 -->
<g id="edge13" class="edge">
<title>q2&#45;&gt;q4</title>
<path fill="none" stroke="black" d="M133.71,-66.57C148.13,-57.74 169.42,-44.71 185.95,-34.59"/>
<polygon fill="black" stroke="black" points="187.86,-37.52 194.56,-29.31 184.21,-31.55 187.86,-37.52"/>
<text text-anchor="middle" x="157.5" y="-57.3" font-family="Times,serif" font-size="14.00">b</text>
</g>
</g>
</svg>
