<svg width="572px" height="181px"
 viewBox="0.00 0.00 571.98 181.00" xmlns="http://www.w3.org/2000/svg" xmlns:xlink="http://www.w3.org/1999/xlink">
<g id="graph0" class="graph" transform="scale(1.0 1.0) rotate(0.0) translate(4.0 177.0)">
<title>DFA</title>
<polygon fill="white" stroke="transparent" points="-4,4 -4,-177 567.98,-177 567.98,4 -4,4"/>
<!-- q0 -->
<g id="node1" class="node">
<title>q0</title>
<ellipse fill="none" stroke="black" cx="110.5" cy="-19.5" rx="19.5" ry="19.5"/>
<text text-anchor="middle" x="110.5" y="-15.8" font-family="Times,serif" font-size="14.00">q0</text>
</g>
<!-- q0&#45;&gt;q0 -->
<g id="edge1" class="edge">
<title>q0&#45;&gt;q0</title>
<path fill="none" stroke="black" d="M104.03,-38.02C102.93,-47.95 105.08,-57 110.5,-57 113.88,-57 115.99,-53.46 116.83,-48.39"/>
<polygon fill="black" stroke="black" points="120.34,-48.07 116.97,-38.02 113.34,-47.97 120.34,-48.07"/>
<text text-anchor="middle" x="110.5" y="-60.8" font-family="Times,serif" font-size="14.00">a</text>
</g>
<!-- q6 -->
<g id="node2" class="node">
<title>q6</title>
<ellipse fill="none" stroke="black" cx="196.49" cy="-54.5" rx="19.5" ry="19.5"/>
<ellipse fill="none" stroke="black" cx="196.49" cy="-54.5" rx="23.5" ry="23.5"/>
<text text-anchor="middle" x="196.49" y="-50.8" font-family="Times,serif" font-size="14.00">q6</text>
</g>
<!-- q0&#45;&gt;q6 -->
<g id="edge2" class="edge">
<title>q0&#45;&gt;q6</title>
<path fill="none" stroke="black" d="M128.9,-26.75C139.37,-31.11 152.98,-36.78 165.16,-41.86"/>
<polygon fill="black" stroke="black" points="163.97,-45.15 174.55,-45.77 166.66,-38.69 163.97,-45.15"/>
<text text-anchor="middle" x="151.5" y="-41.3" font-family="Times,serif" font-size="14.00">b</text>
</g>
<!-- q3 -->
<g id="node3" class="node">
<title>q3</title>
<ellipse fill="none" stroke="black" cx="286.49" cy="-121.5" rx="19.5" ry="19.5"/>
<ellipse fill="none" stroke="black" cx="286.49" cy="-121.5" rx="23.5" ry="23.5"/>
<text text-anchor="middle" x="286.49" y="-117.8" font-family="Times,serif" font-size="14.00">q3</text>
</g>
<!-- q6&#45;&gt;q3 -->
<g id="edge3" class="edge">
<title>q6&#45;&gt;q3</title>
<path fill="none" stroke="black" d="M215.73,-68.38C228.23,-77.9 245.03,-90.69 259.01,-101.33"/>
<polygon fill="black" stroke="black" points="257.21,-104.36 267.28,-107.63 261.45,-98.79 257.21,-104.36"/>
<text text-anchor="middle" x="241.49" y="-93.3" font-family="Times,serif" font-size="14.00">a</text>
</g>
<!-- q5 -->
<g id="node7" class="node">
<title>q5</title>
<ellipse fill="none" stroke="black" cx="376.49" cy="-52.5" rx="19.5" ry="19.5"/>
<text text-anchor="middle" x="376.49" y="-48.8" font-family="Times,serif" font-size="14.00">q5</text>
</g>
<!-- q6&#45;&gt;q5 -->
<g id="edge4" class="edge">
<title>q6&#45;&gt;q5</title>
<path fill="none" stroke="black" d="M220.04,-54.24C252.25,-53.88 311.46,-53.22 346.77,-52.82"/>
<polygon fill="black" stroke="black" points="346.95,-56.32 356.91,-52.71 346.87,-49.32 346.95,-56.32"/>
<text text-anchor="middle" x="286.49" y="-58.3" font-family="Times,serif" font-size="14.00">b</text>
</g>
<!-- q4 -->
<g id="node4" class="node">
<title>q4</title>
<ellipse fill="none" stroke="black" cx="462.48" cy="-120.5" rx="19.5" ry="19.5"/>
<text text-anchor="middle" x="462.48" y="-116.8" font-family="Times,serif" font-size="14.00">q4</text>
</g>
<!-- q3&#45;&gt;q4 -->
<g id="edge5" class="edge">
<title>q3&#45;&gt;q4</title>
<path fill="none" stroke="black" d="M308.92,-129.48C315.07,-131.76 321.79,-134.23 327.99,-136.5 339.08,-140.55 341.36,-143.47 352.99,-145.5 373.57,-149.09 379.48,-149.45 399.99,-145.5 412.12,-143.16 424.87,-138.4 435.6,-133.65"/>
<polygon fill="black" stroke="black" points="437.22,-136.76 444.81,-129.37 434.26,-130.41 437.22,-136.76"/>
<text text-anchor="middle" x="376.49" y="-151.3" font-family="Times,serif" font-size="14.00">a</text>
</g>
<!-- q2 -->
<g id="node6" class="node">
<title>q2</title>
<ellipse fill="none" stroke="black" cx="376.49" cy="-113.5" rx="19.5" ry="19.5"/>
<ellipse fill="none" stroke="black" cx="376.49" cy="-113.5" rx="23.5" ry="23.5"/>
<text text-anchor="middle" x="376.49" y="-109.8" font-family="Times,serif" font-size="14.00">q2</text>
</g>
<!-- q3&#45;&gt;q2 -->
<g id="edge6" class="edge">
<title>q3&#45;&gt;q2</title>
<path fill="none" stroke="black" d="M310.15,-119.44C320.11,-118.53 331.99,-117.45 342.87,-116.46"/>
<polygon fill="black" stroke="black" points="343.26,-119.94 352.9,-115.55 342.63,-112.97 343.26,-119.94"/>
<text text-anchor="middle" x="331.49" y="-121.3" font-family="Times,serif" font-size="14.00">b</text>
</g>
<!-- q4&#45;&gt;q4 -->
<g id="edge7" class="edge">
<title>q4&#45;&gt;q4</title>
<path fill="none" stroke="black" d="M455.29,-139.02C454.07,-148.95 456.47,-158 462.48,-158 466.24,-158 468.59,-154.46 469.52,-149.39"/>
<polygon fill="black" stroke="black" points="473.03,-149.07 469.67,-139.02 466.03,-148.97 473.03,-149.07"/>
<text text-anchor="middle" x="462.48" y="-161.8" font-family="Times,serif" font-size="14.00">a</text>
</g>
<!-- q1 -->
<g id="node5" class="node">
<title>q1</title>
<ellipse fill="none" stroke="black" cx="544.48" cy="-65.5" rx="19.5" ry="19.5"/>
<text text-anchor="middle" x="544.48" y="-61.8" font-family="Times,serif" font-size="14.00">q1</text>
</g>
<!-- q4&#45;&gt;q1 -->
<g id="edge8" class="edge">
<title>q4&#45;&gt;q1</title>
<path fill="none" stroke="black" d="M480.6,-113.14C488.87,-109.27 498.75,-104.15 506.98,-98.5 512.44,-94.75 517.93,-90.26 522.94,-85.8"/>
<polygon fill="black" stroke="black" points="525.38,-88.31 530.34,-78.95 520.62,-83.18 525.38,-88.31"/>
<text text-anchor="middle" x="503.48" y="-106.3" font-family="Times,serif" font-size="14.00">b</text>
</g>
<!-- q1&#45;&gt;q0 -->
<g id="edge10" class="edge">
<title>q1&#45;&gt;q0</title>
<path fill="none" stroke="black" d="M532.82,-49.53C519.13,-31.16 493.53,-3.5 463.48,-3.5 195.49,-3.5 195.49,-3.5 195.49,-3.5 176.5,-3.5 155.5,-7.5 139.26,-11.5"/>
<polygon fill="black" stroke="black" points="138.13,-8.17 129.33,-14.08 139.89,-14.95 138.13,-8.17"/>
<text text-anchor="middle" x="331.49" y="-7.3" font-family="Times,serif" font-size="14.00">b</text>
</g>
<!-- q1&#45;&gt;q4 -->
<g id="edge9" class="edge">
<title>q1&#45;&gt;q4</title>
<path fill="none" stroke="black" d="M525.17,-69.09C517.02,-71.25 507.56,-74.56 499.98,-79.5 492.91,-84.11 486.36,-90.44 480.82,-96.74"/>
<polygon fill="black" stroke="black" points="478.02,-94.64 474.38,-104.59 483.43,-99.08 478.02,-94.64"/>
<text text-anchor="middle" x="503.48" y="-83.3" font-family="Times,serif" font-size="14.00">a</text>
</g>
<!-- q2&#45;&gt;q3 -->
<g id="edge11" class="edge">
<title>q2&#45;&gt;q3</title>
<path fill="none" stroke="black" d="M356.23,-101.56C347.66,-97.66 337.39,-94.92 327.99,-97.5 323.52,-98.72 319.05,-100.58 314.79,-102.73"/>
<polygon fill="black" stroke="black" points="312.87,-99.8 305.9,-107.78 316.33,-105.89 312.87,-99.8"/>
<text text-anchor="middle" x="331.49" y="-101.3" font-family="Times,serif" font-size="14.00">a</text>
</g>
<!-- q2&#45;&gt;q4 -->
<g id="edge12" class="edge">
<title>q2&#45;&gt;q4</title>
<path fill="none" stroke="black" d="M400,-115.37C410.06,-116.21 422.03,-117.21 432.73,-118.1"/>
<polygon fill="black" stroke="black" points="432.63,-121.61 442.89,-118.95 433.21,-114.63 432.63,-121.61"/>
<text text-anchor="middle" x="421.49" y="-120.3" font-family="Times,serif" font-size="14.00">b</text>
</g>
<!-- q5&#45;&gt;q4 -->
<g id="edge13" class="edge">
<title>q5&#45;&gt;q4</title>
<path fill="none" stroke="black" d="M392.12,-64.34C404.93,-74.71 423.75,-89.95 438.56,-101.94"/>
<polygon fill="black" stroke="black" points="436.76,-104.99 446.74,-108.56 441.17,-99.55 436.76,-104.99"/>
<text text-anchor="middle" x="421.49" y="-94.3" font-family="Times,serif" font-size="14.00">a</text>
</g>
<!-- q5&#45;&gt;q1 -->
<g id="edge14" class="edge">
<title>q5&#45;&gt;q1</title>
<path fill="none" stroke="black" d="M396.21,-53.96C425.05,-56.22 480.58,-60.57 514.6,-63.24"/>
<polygon fill="black" stroke="black" points="514.59,-66.75 524.83,-64.04 515.13,-59.77 514.59,-66.75"/>
<text text-anchor="middle" x="462.48" y="-65.3" font-family="Times,serif" font-size="14.00">b</text>
</g>
<g id="node8" class="node">
<title></title>
</g>
<!-- &#45;&gt;q0 -->
<g id="edge15" class="edge">
<title>&#45;&gt;q0</title>
<path fill="none" stroke="red" d="M54.24,-19.5C62.7,-19.5 72.14,-19.5 80.77,-19.5"/>
<polygon fill="red" stroke="red" points="80.8,-23 90.8,-19.5 80.8,-16 80.8,-23"/>
</g>
</g>
</svg>
