<svg width="654px" height="282px"
 viewBox="0.00 0.00 653.98 282.00" xmlns="http://www.w3.org/2000/svg" xmlns:xlink="http://www.w3.org/1999/xlink">
<g id="graph0" class="graph" transform="scale(1.0 1.0) rotate(0.0) translate(4.0 278.0)">
<title>DFA</title>
<polygon fill="white" stroke="transparent" points="-4,4 -4,-278 649.98,-278 649.98,4 -4,4"/>
<!-- q0 -->
<g id="node1" class="node">
<title>q0</title>
<ellipse fill="none" stroke="black" cx="114.5" cy="-97" rx="19.5" ry="19.5"/>
<ellipse fill="none" stroke="black" cx="114.5" cy="-97" rx="23.5" ry="23.5"/>
<text text-anchor="middle" x="114.5" y="-93.3" font-family="Times,serif" font-size="14.00">q0</text>
</g>
<!-- q3 -->
<g id="node2" class="node">
<title>q3</title>
<ellipse fill="none" stroke="black" cx="200.49" cy="-133" rx="19.5" ry="19.5"/>
<text text-anchor="middle" x="200.49" y="-129.3" font-family="Times,serif" font-size="14.00">q3</text>
</g>
<!-- q0&#45;&gt;q3 -->
<g id="edge1" class="edge">
<title>q0&#45;&gt;q3</title>
<path fill="none" stroke="black" d="M136.26,-105.9C147.34,-110.65 161.1,-116.55 172.96,-121.63"/>
<polygon fill="black" stroke="black" points="171.79,-124.93 182.36,-125.66 174.55,-118.5 171.79,-124.93"/>
<text text-anchor="middle" x="159.5" y="-120.8" font-family="Times,serif" font-size="14.00">a</text>
</g>
<!-- q2 -->
<g id="node3" class="node">
<title>q2</title>
<ellipse fill="none" stroke="black" cx="286.49" cy="-81" rx="19.5" ry="19.5"/>
<ellipse fill="none" stroke="black" cx="286.49" cy="-81" rx="23.5" ry="23.5"/>
<text text-anchor="middle" x="286.49" y="-77.3" font-family="Times,serif" font-size="14.00">q2</text>
</g>
<!-- q0&#45;&gt;q2 -->
<g id="edge2" class="edge">
<title>q0&#45;&gt;q2</title>
<path fill="none" stroke="black" d="M137.92,-94.49C150.56,-93.1 166.65,-91.38 181,-90 205.07,-87.68 232.3,-85.34 252.93,-83.63"/>
<polygon fill="black" stroke="black" points="253.38,-87.11 263.06,-82.8 252.8,-80.13 253.38,-87.11"/>
<text text-anchor="middle" x="200.49" y="-93.8" font-family="Times,serif" font-size="14.00">b</text>
</g>
<!-- q3&#45;&gt;q2 -->
<g id="edge3" class="edge">
<title>q3&#45;&gt;q2</title>
<path fill="none" stroke="black" d="M217.69,-122.97C228.92,-116.02 244.18,-106.58 257.37,-98.41"/>
<polygon fill="black" stroke="black" points="259.44,-101.24 266.1,-93 255.76,-95.29 259.44,-101.24"/>
<text text-anchor="middle" x="241.49" y="-113.8" font-family="Times,serif" font-size="14.00">a</text>
</g>
<!-- q1 -->
<g id="node7" class="node">
<title>q1</title>
<ellipse fill="none" stroke="black" cx="626.48" cy="-104" rx="19.5" ry="19.5"/>
<text text-anchor="middle" x="626.48" y="-100.3" font-family="Times,serif" font-size="14.00">q1</text>
</g>
<!-- q3&#45;&gt;q1 -->
<g id="edge4" class="edge">
<title>q3&#45;&gt;q1</title>
<path fill="none" stroke="black" d="M205.03,-152.14C212.78,-187.38 234.75,-259 285.49,-259 285.49,-259 285.49,-259 541.48,-259 597.87,-259 616.6,-178.73 622.67,-133.72"/>
<polygon fill="black" stroke="black" points="626.16,-133.98 623.9,-123.63 619.21,-133.13 626.16,-133.98"/>
<text text-anchor="middle" x="413.49" y="-262.8" font-family="Times,serif" font-size="14.00">b</text>
</g>
<!-- q5 -->
<g id="node4" class="node">
<title>q5</title>
<ellipse fill="none" stroke="black" cx="372.49" cy="-128" rx="19.5" ry="19.5"/>
<text text-anchor="middle" x="372.49" y="-124.3" font-family="Times,serif" font-size="14.00">q5</text>
</g>
<!-- q2&#45;&gt;q5 -->
<g id="edge5" class="edge">
<title>q2&#45;&gt;q5</title>
<path fill="none" stroke="black" d="M307.4,-92.14C319,-98.63 333.74,-106.88 346.15,-113.82"/>
<polygon fill="black" stroke="black" points="344.67,-117.01 355.11,-118.84 348.09,-110.9 344.67,-117.01"/>
<text text-anchor="middle" x="331.49" y="-110.8" font-family="Times,serif" font-size="14.00">a</text>
</g>
<!-- q4 -->
<g id="node6" class="node">
<title>q4</title>
<ellipse fill="none" stroke="black" cx="540.48" cy="-104" rx="19.5" ry="19.5"/>
<ellipse fill="none" stroke="black" cx="540.48" cy="-104" rx="23.5" ry="23.5"/>
<text text-anchor="middle" x="540.48" y="-100.3" font-family="Times,serif" font-size="14.00">q4</text>
</g>
<!-- q2&#45;&gt;q4 -->
<g id="edge6" class="edge">
<title>q2&#45;&gt;q4</title>
<path fill="none" stroke="black" d="M310.3,-83.08C355.18,-87.18 455.11,-96.3 506.92,-101.03"/>
<polygon fill="black" stroke="black" points="506.63,-104.52 516.91,-101.94 507.27,-97.55 506.63,-104.52"/>
<text text-anchor="middle" x="413.49" y="-96.8" font-family="Times,serif" font-size="14.00">b</text>
</g>
<!-- q6 -->
<g id="node5" class="node">
<title>q6</title>
<ellipse fill="none" stroke="black" cx="454.48" cy="-128" rx="19.5" ry="19.5"/>
<text text-anchor="middle" x="454.48" y="-124.3" font-family="Times,serif" font-size="14.00">q6</text>
</g>
<!-- q5&#45;&gt;q6 -->
<g id="edge7" class="edge">
<title>q5&#45;&gt;q6</title>
<path fill="none" stroke="black" d="M392.04,-128C401.67,-128 413.64,-128 424.46,-128"/>
<polygon fill="black" stroke="black" points="424.75,-131.5 434.75,-128 424.75,-124.5 424.75,-131.5"/>
<text text-anchor="middle" x="413.49" y="-131.8" font-family="Times,serif" font-size="14.00">a</text>
</g>
<!-- q5&#45;&gt;q4 -->
<g id="edge8" class="edge">
<title>q5&#45;&gt;q4</title>
<path fill="none" stroke="black" d="M383.97,-144C394.74,-158.84 413.02,-179.95 434.99,-189 451.01,-195.6 458.43,-196.65 473.98,-189 497.07,-177.64 514.31,-153.8 525.3,-134.24"/>
<polygon fill="black" stroke="black" points="528.42,-135.81 530.04,-125.34 522.25,-132.52 528.42,-135.81"/>
<text text-anchor="middle" x="454.48" y="-197.8" font-family="Times,serif" font-size="14.00">b</text>
</g>
<!-- q6&#45;&gt;q6 -->
<g id="edge9" class="edge">
<title>q6&#45;&gt;q6</title>
<path fill="none" stroke="black" d="M447.29,-146.52C446.07,-156.45 448.47,-165.5 454.48,-165.5 458.24,-165.5 460.59,-161.96 461.52,-156.89"/>
<polygon fill="black" stroke="black" points="465.03,-156.57 461.67,-146.52 458.03,-156.47 465.03,-156.57"/>
<text text-anchor="middle" x="454.48" y="-169.3" font-family="Times,serif" font-size="14.00">a</text>
</g>
<!-- q6&#45;&gt;q4 -->
<g id="edge10" class="edge">
<title>q6&#45;&gt;q4</title>
<path fill="none" stroke="black" d="M473.71,-122.79C483.71,-119.93 496.39,-116.31 507.95,-113.01"/>
<polygon fill="black" stroke="black" points="509.06,-116.33 517.72,-110.22 507.14,-109.6 509.06,-116.33"/>
<text text-anchor="middle" x="495.48" y="-120.8" font-family="Times,serif" font-size="14.00">b</text>
</g>
<!-- q4&#45;&gt;q2 -->
<g id="edge12" class="edge">
<title>q4&#45;&gt;q2</title>
<path fill="none" stroke="black" d="M517.65,-96.96C493.37,-89.54 452.85,-78.33 416.99,-74 384.18,-70.04 346.42,-72.92 320.18,-76.1"/>
<polygon fill="black" stroke="black" points="319.5,-72.66 310.03,-77.42 320.39,-79.6 319.5,-72.66"/>
<text text-anchor="middle" x="413.49" y="-77.8" font-family="Times,serif" font-size="14.00">b</text>
</g>
<!-- q4&#45;&gt;q1 -->
<g id="edge11" class="edge">
<title>q4&#45;&gt;q1</title>
<path fill="none" stroke="black" d="M563.99,-104C574.05,-104 586.03,-104 596.72,-104"/>
<polygon fill="black" stroke="black" points="596.88,-107.5 606.88,-104 596.88,-100.5 596.88,-107.5"/>
<text text-anchor="middle" x="585.48" y="-107.8" font-family="Times,serif" font-size="14.00">a</text>
</g>
<!-- q1&#45;&gt;q2 -->
<g id="edge13" class="edge">
<title>q1&#45;&gt;q2</title>
<path fill="none" stroke="black" d="M619.92,-85.41C609.7,-55.49 584.88,0 541.48,0 371.49,0 371.49,0 371.49,0 340.91,0 317.18,-28.17 302.86,-51.28"/>
<polygon fill="black" stroke="black" points="299.71,-49.74 297.67,-60.14 305.74,-53.29 299.71,-49.74"/>
<text text-anchor="middle" x="454.48" y="-3.8" font-family="Times,serif" font-size="14.00">a</text>
</g>
<!-- q1&#45;&gt;q1 -->
<g id="edge14" class="edge">
<title>q1&#45;&gt;q1</title>
<path fill="none" stroke="black" d="M619.29,-122.52C618.07,-132.45 620.46,-141.5 626.48,-141.5 630.24,-141.5 632.58,-137.96 633.52,-132.89"/>
<polygon fill="black" stroke="black" points="637.02,-132.57 633.67,-122.52 630.02,-132.47 637.02,-132.57"/>
<text text-anchor="middle" x="626.48" y="-145.3" font-family="Times,serif" font-size="14.00">b</text>
</g>
<g id="node8" class="node">
<title></title>
</g>
<!-- &#45;&gt;q0 -->
<g id="edge15" class="edge">
<title>&#45;&gt;q0</title>
<path fill="none" stroke="red" d="M54.12,-97C62.43,-97 71.73,-97 80.46,-97"/>
<polygon fill="red" stroke="red" points="80.72,-100.5 90.72,-97 80.72,-93.5 80.72,-100.5"/>
</g>
</g>
</svg>
