<svg width="406px" height="249px"
 viewBox="0.00 0.00 405.99 248.58" xmlns="http://www.w3.org/2000/svg" xmlns:xlink="http://www.w3.org/1999/xlink">
<g id="graph0" class="graph" transform="scale(1.0 1.0) rotate(0.0) translate(4.0 244.58)">
<title>DFA</title>
<polygon fill="white" stroke="transparent" points="-4,4 -4,-244.58 401.99,-244.58 401.99,4 -4,4"/>
<!-- q0 -->
<g id="node1" class="node">
<title>q0</title>
<ellipse fill="none" stroke="black" cx="23.5" cy="-93.58" rx="19.5" ry="19.5"/>
<ellipse fill="none" stroke="black" cx="23.5" cy="-93.58" rx="23.5" ry="23.5"/>
<text text-anchor="middle" x="23.5" y="-89.88" font-family="Times,serif" font-size="14.00">q0</text>
</g>
<!-- q2 -->
<g id="node2" class="node">
<title>q2</title>
<ellipse fill="none" stroke="black" cx="117" cy="-44.58" rx="19.5" ry="19.5"/>
<ellipse fill="none" stroke="black" cx="117" cy="-44.58" rx="23.5" ry="23.5"/>
<text text-anchor="middle" x="117" y="-40.88" font-family="Times,serif" font-size="14.00">q2</text>
</g>
<!-- q0&#45;&gt;q2 -->
<g id="edge1" class="edge">
<title>q0&#45;&gt;q2</title>
<path fill="none" stroke="black" d="M34.72,-72.67C41.55,-61.21 51.73,-48.06 65,-41.58 70.85,-38.71 77.55,-37.74 84.12,-37.81"/>
<polygon fill="black" stroke="black" points="83.95,-41.31 94.21,-38.66 84.54,-34.33 83.95,-41.31"/>
<text text-anchor="middle" x="68.5" y="-45.38" font-family="Times,serif" font-size="14.00">a</text>
</g>
<!-- q6 -->
<g id="node3" class="node">
<title>q6</title>
<ellipse fill="none" stroke="black" cx="206.49" cy="-44.58" rx="19.5" ry="19.5"/>
<text text-anchor="middle" x="206.49" y="-40.88" font-family="Times,serif" font-size="14.00">q6</text>
</g>
<!-- q0&#45;&gt;q6 -->
<g id="edge2" class="edge">
<title>q0&#45;&gt;q6</title>
<path fill="none" stroke="black" d="M47.26,-92.1C55.11,-91.47 63.96,-90.64 72,-89.58 104.23,-85.32 113.22,-87.08 144,-76.58 155.85,-72.53 157.89,-69.36 169,-63.58 172.43,-61.79 176.05,-59.91 179.61,-58.05"/>
<polygon fill="black" stroke="black" points="181.53,-61 188.78,-53.28 178.29,-54.79 181.53,-61"/>
<text text-anchor="middle" x="117" y="-91.38" font-family="Times,serif" font-size="14.00">b</text>
</g>
<!-- q2&#45;&gt;q0 -->
<g id="edge3" class="edge">
<title>q2&#45;&gt;q0</title>
<path fill="none" stroke="black" d="M96.06,-55.25C83.73,-61.86 67.68,-70.45 53.9,-77.83"/>
<polygon fill="black" stroke="black" points="51.97,-74.9 44.8,-82.7 55.27,-81.07 51.97,-74.9"/>
<text text-anchor="middle" x="68.5" y="-74.38" font-family="Times,serif" font-size="14.00">a</text>
</g>
<!-- q2&#45;&gt;q6 -->
<g id="edge4" class="edge">
<title>q2&#45;&gt;q6</title>
<path fill="none" stroke="black" d="M140.53,-44.58C151.54,-44.58 164.91,-44.58 176.66,-44.58"/>
<polygon fill="black" stroke="black" points="176.88,-48.08 186.88,-44.58 176.88,-41.08 176.88,-48.08"/>
<text text-anchor="middle" x="165.5" y="-48.38" font-family="Times,serif" font-size="14.00">b</text>
</g>
<!-- q3 -->
<g id="node4" class="node">
<title>q3</title>
<ellipse fill="none" stroke="black" cx="288.49" cy="-79.58" rx="19.5" ry="19.5"/>
<text text-anchor="middle" x="288.49" y="-75.88" font-family="Times,serif" font-size="14.00">q3</text>
</g>
<!-- q6&#45;&gt;q3 -->
<g id="edge5" class="edge">
<title>q6&#45;&gt;q3</title>
<path fill="none" stroke="black" d="M224.85,-52.17C235.41,-56.79 249.1,-62.78 260.99,-67.98"/>
<polygon fill="black" stroke="black" points="259.88,-71.31 270.44,-72.12 262.68,-64.9 259.88,-71.31"/>
<text text-anchor="middle" x="247.49" y="-67.38" font-family="Times,serif" font-size="14.00">a</text>
</g>
<!-- q5 -->
<g id="node6" class="node">
<title>q5</title>
<ellipse fill="none" stroke="black" cx="374.49" cy="-27.58" rx="19.5" ry="19.5"/>
<ellipse fill="none" stroke="black" cx="374.49" cy="-27.58" rx="23.5" ry="23.5"/>
<text text-anchor="middle" x="374.49" y="-23.88" font-family="Times,serif" font-size="14.00">q5</text>
</g>
<!-- q6&#45;&gt;q5 -->
<g id="edge6" class="edge">
<title>q6&#45;&gt;q5</title>
<path fill="none" stroke="black" d="M226.04,-41.95C238.23,-40.28 254.54,-38.14 268.99,-36.58 293.04,-33.98 320.27,-31.65 340.9,-30.02"/>
<polygon fill="black" stroke="black" points="341.34,-33.49 351.04,-29.23 340.8,-26.51 341.34,-33.49"/>
<text text-anchor="middle" x="288.49" y="-40.38" font-family="Times,serif" font-size="14.00">b</text>
</g>
<!-- q1 -->
<g id="node5" class="node">
<title>q1</title>
<ellipse fill="none" stroke="black" cx="374.49" cy="-177.58" rx="19.5" ry="19.5"/>
<text text-anchor="middle" x="374.49" y="-173.88" font-family="Times,serif" font-size="14.00">q1</text>
</g>
<!-- q3&#45;&gt;q1 -->
<g id="edge7" class="edge">
<title>q3&#45;&gt;q1</title>
<path fill="none" stroke="black" d="M301.89,-94.04C315.72,-110.18 338.27,-136.49 354.37,-155.27"/>
<polygon fill="black" stroke="black" points="351.88,-157.74 361.04,-163.06 357.19,-153.19 351.88,-157.74"/>
<text text-anchor="middle" x="329.49" y="-132.38" font-family="Times,serif" font-size="14.00">a</text>
</g>
<!-- q3&#45;&gt;q5 -->
<g id="edge8" class="edge">
<title>q3&#45;&gt;q5</title>
<path fill="none" stroke="black" d="M305.69,-69.55C316.92,-62.6 332.17,-53.15 345.37,-44.98"/>
<polygon fill="black" stroke="black" points="347.44,-47.82 354.1,-39.58 343.75,-41.87 347.44,-47.82"/>
<text text-anchor="middle" x="329.49" y="-61.38" font-family="Times,serif" font-size="14.00">b</text>
</g>
<!-- q1&#45;&gt;q0 -->
<g id="edge9" class="edge">
<title>q1&#45;&gt;q0</title>
<path fill="none" stroke="black" d="M360.26,-190.95C344.74,-205.15 317.54,-225.58 289.49,-225.58 116,-225.58 116,-225.58 116,-225.58 67.77,-225.58 42.95,-165.33 31.91,-126.24"/>
<polygon fill="black" stroke="black" points="35.29,-125.33 29.34,-116.57 28.53,-127.13 35.29,-125.33"/>
<text text-anchor="middle" x="206.49" y="-229.38" font-family="Times,serif" font-size="14.00">a</text>
</g>
<!-- q1&#45;&gt;q2 -->
<g id="edge10" class="edge">
<title>q1&#45;&gt;q2</title>
<path fill="none" stroke="black" d="M355.11,-181.09C319.26,-186.86 238.95,-194.45 187,-158.58 151.83,-134.29 168.34,-107.7 144,-72.58 143.12,-71.32 142.19,-70.05 141.23,-68.8"/>
<polygon fill="black" stroke="black" points="143.61,-66.19 134.5,-60.79 138.25,-70.7 143.61,-66.19"/>
<text text-anchor="middle" x="247.49" y="-185.38" font-family="Times,serif" font-size="14.00">b</text>
</g>
<!-- q5&#45;&gt;q2 -->
<g id="edge11" class="edge">
<title>q5&#45;&gt;q2</title>
<path fill="none" stroke="black" d="M352.81,-18.22C346.55,-15.72 339.59,-13.25 332.99,-11.58 294.45,-1.82 283.46,2.2 243.99,-2.58 210.04,-6.68 173.14,-20.13 148.1,-30.71"/>
<polygon fill="black" stroke="black" points="146.58,-27.56 138.79,-34.75 149.36,-33.98 146.58,-27.56"/>
<text text-anchor="middle" x="247.49" y="-6.38" font-family="Times,serif" font-size="14.00">a</text>
</g>
<!-- q5&#45;&gt;q6 -->
<g id="edge12" class="edge">
<title>q5&#45;&gt;q6</title>
<path fill="none" stroke="black" d="M352.05,-20.57C330.77,-14.64 297.32,-8.04 268.99,-14.58 256.19,-17.53 242.97,-23.53 232.09,-29.4"/>
<polygon fill="black" stroke="black" points="230.17,-26.46 223.19,-34.43 233.62,-32.55 230.17,-26.46"/>
<text text-anchor="middle" x="288.49" y="-18.38" font-family="Times,serif" font-size="14.00">b</text>
</g>
<g id="node7" class="node">
<title></title>
</g>
<!-- q4 -->
<g id="node8" class="node">
<title>q4</title>
<ellipse fill="none" stroke="black" cx="206.49" cy="-130.58" rx="19.5" ry="19.5"/>
<text text-anchor="middle" x="206.49" y="-126.88" font-family="Times,serif" font-size="14.00">q4</text>
</g>
<!-- &#45;&gt;q4 -->
<g id="edge13" class="edge">
<title>&#45;&gt;q4</title>
<path fill="none" stroke="red" d="M144.25,-164.87C155.65,-158.49 168.96,-151.04 180.25,-144.72"/>
<polygon fill="red" stroke="red" points="182.16,-147.66 189.17,-139.72 178.73,-141.55 182.16,-147.66"/>
</g>
<!-- q4&#45;&gt;q3 -->
<g id="edge14" class="edge">
<title>q4&#45;&gt;q3</title>
<path fill="none" stroke="black" d="M222.98,-119.66C229.42,-115.2 237.01,-110.05 243.99,-105.58 249.97,-101.75 256.49,-97.76 262.63,-94.08"/>
<polygon fill="black" stroke="black" points="264.42,-97.09 271.23,-88.97 260.85,-91.07 264.42,-97.09"/>
<text text-anchor="middle" x="247.49" y="-109.38" font-family="Times,serif" font-size="14.00">a</text>
</g>
<!-- q4&#45;&gt;q5 -->
<g id="edge15" class="edge">
<title>q4&#45;&gt;q5</title>
<path fill="none" stroke="black" d="M225.64,-134.5C251.93,-139.09 300.97,-143.43 332.99,-120.58 352.36,-106.75 362.57,-81.6 367.89,-60.93"/>
<polygon fill="black" stroke="black" points="371.36,-61.45 370.18,-50.92 364.54,-59.89 371.36,-61.45"/>
<text text-anchor="middle" x="288.49" y="-141.38" font-family="Times,serif" font-size="14.00">b</text>
</g>
</g>
</svg>
