<svg width="445px" height="157px"
 viewBox="0.00 0.00 445.28 156.64" xmlns="http://www.w3.org/2000/svg" xmlns:xlink="http://www.w3.org/1999/xlink">
<g id="graph0" class="graph" transform="scale(1.0 1.0) rotate(0.0) translate(4.0 152.64)">
<title>Minimaler DFA</title>
<polygon fill="white" stroke="transparent" points="-4,4 -4,-152.64 441.28,-152.64 441.28,4 -4,4"/>
<g id="node1" class="node">
<title></title>
</g>
<!-- q4q6 -->
<g id="node2" class="node">
<title>q4q6</title>
<ellipse fill="none" stroke="black" cx="119.6" cy="-28.6" rx="28.7" ry="28.7"/>
<text text-anchor="middle" x="119.6" y="-24.9" font-family="Times,serif" font-size="14.00">q4q6</text>
</g>
<!-- &#45;&gt;q4q6 -->
<g id="edge1" class="edge">
<title>&#45;&gt;q4q6</title>
<path fill="none" stroke="red" d="M54.2,-28.6C62.47,-28.6 71.77,-28.6 80.68,-28.6"/>
<polygon fill="red" stroke="red" points="80.87,-32.1 90.87,-28.6 80.87,-25.1 80.87,-32.1"/>
</g>
<!-- q3 -->
<g id="node3" class="node">
<title>q3</title>
<ellipse fill="none" stroke="black" cx="210.69" cy="-75.6" rx="19.5" ry="19.5"/>
<text text-anchor="middle" x="210.69" y="-71.9" font-family="Times,serif" font-size="14.00">q3</text>
</g>
<!-- q4q6&#45;&gt;q3 -->
<g id="edge2" class="edge">
<title>q4q6&#45;&gt;q3</title>
<path fill="none" stroke="black" d="M145.42,-41.69C157.44,-48.03 171.87,-55.65 184.01,-62.05"/>
<polygon fill="black" stroke="black" points="182.69,-65.31 193.16,-66.88 185.95,-59.12 182.69,-65.31"/>
<text text-anchor="middle" x="169.69" y="-59.4" font-family="Times,serif" font-size="14.00">a</text>
</g>
<!-- q0q2q5 -->
<g id="node5" class="node">
<title>q0q2q5</title>
<ellipse fill="none" stroke="black" cx="396.23" cy="-74.6" rx="37.09" ry="37.09"/>
<ellipse fill="none" stroke="black" cx="396.23" cy="-74.6" rx="41.09" ry="41.09"/>
<text text-anchor="middle" x="396.23" y="-70.9" font-family="Times,serif" font-size="14.00">q0q2q5</text>
</g>
<!-- q4q6&#45;&gt;q0q2q5 -->
<g id="edge3" class="edge">
<title>q4q6&#45;&gt;q0q2q5</title>
<path fill="none" stroke="black" d="M147.93,-33.18C194.01,-40.89 287.77,-56.6 345.68,-66.3"/>
<polygon fill="black" stroke="black" points="345.26,-69.78 355.7,-67.98 346.42,-62.87 345.26,-69.78"/>
<text text-anchor="middle" x="251.69" y="-54.4" font-family="Times,serif" font-size="14.00">b</text>
</g>
<!-- q1 -->
<g id="node4" class="node">
<title>q1</title>
<ellipse fill="none" stroke="black" cx="292.69" cy="-126.6" rx="19.5" ry="19.5"/>
<text text-anchor="middle" x="292.69" y="-122.9" font-family="Times,serif" font-size="14.00">q1</text>
</g>
<!-- q3&#45;&gt;q1 -->
<g id="edge4" class="edge">
<title>q3&#45;&gt;q1</title>
<path fill="none" stroke="black" d="M227.5,-85.67C238.89,-92.94 254.48,-102.88 267.45,-111.14"/>
<polygon fill="black" stroke="black" points="265.6,-114.12 275.92,-116.54 269.37,-108.22 265.6,-114.12"/>
<text text-anchor="middle" x="251.69" y="-106.4" font-family="Times,serif" font-size="14.00">a</text>
</g>
<!-- q3&#45;&gt;q0q2q5 -->
<g id="edge5" class="edge">
<title>q3&#45;&gt;q0q2q5</title>
<path fill="none" stroke="black" d="M230.3,-75.5C256.88,-75.35 306.68,-75.08 344.63,-74.87"/>
<polygon fill="black" stroke="black" points="345.01,-78.37 354.99,-74.82 344.97,-71.37 345.01,-78.37"/>
<text text-anchor="middle" x="292.69" y="-78.4" font-family="Times,serif" font-size="14.00">b</text>
</g>
<!-- q1&#45;&gt;q0q2q5 -->
<g id="edge6" class="edge">
<title>q1&#45;&gt;q0q2q5</title>
<path fill="none" stroke="black" d="M312.47,-127.83C320.35,-127.72 329.47,-126.72 337.19,-123.6 345.09,-120.39 352.71,-115.68 359.68,-110.43"/>
<polygon fill="black" stroke="black" points="361.97,-113.08 367.54,-104.06 357.57,-107.63 361.97,-113.08"/>
<text text-anchor="middle" x="333.69" y="-129.4" font-family="Times,serif" font-size="14.00">a</text>
</g>
<!-- q1&#45;&gt;q0q2q5 -->
<g id="edge7" class="edge">
<title>q1&#45;&gt;q0q2q5</title>
<path fill="none" stroke="black" d="M309.46,-116.57C315.81,-112.67 323.26,-108.27 330.19,-104.6 336.24,-101.39 342.7,-98.17 349.12,-95.1"/>
<polygon fill="black" stroke="black" points="350.87,-98.14 358.42,-90.72 347.88,-91.81 350.87,-98.14"/>
<text text-anchor="middle" x="333.69" y="-108.4" font-family="Times,serif" font-size="14.00">b</text>
</g>
<!-- q0q2q5&#45;&gt;q4q6 -->
<g id="edge9" class="edge">
<title>q0q2q5&#45;&gt;q4q6</title>
<path fill="none" stroke="black" d="M357.91,-59.61C330.1,-49.26 290.92,-36.35 255.19,-30.6 222.91,-25.4 185.7,-25.29 158.61,-26.25"/>
<polygon fill="black" stroke="black" points="158.23,-22.76 148.38,-26.68 158.52,-29.76 158.23,-22.76"/>
<text text-anchor="middle" x="251.69" y="-34.4" font-family="Times,serif" font-size="14.00">b</text>
</g>
<!-- q0q2q5&#45;&gt;q0q2q5 -->
<g id="edge8" class="edge">
<title>q0q2q5&#45;&gt;q0q2q5</title>
<path fill="none" stroke="black" d="M384.67,-114.06C385.17,-125.14 389.03,-133.64 396.23,-133.64 400.96,-133.64 404.25,-129.98 406.09,-124.33"/>
<polygon fill="black" stroke="black" points="409.61,-124.5 407.8,-114.06 402.71,-123.35 409.61,-124.5"/>
<text text-anchor="middle" x="396.23" y="-137.44" font-family="Times,serif" font-size="14.00">a</text>
</g>
</g>
</svg>
