<svg width="356px" height="159px"
 viewBox="0.00 0.00 355.58 158.60" xmlns="http://www.w3.org/2000/svg" xmlns:xlink="http://www.w3.org/1999/xlink">
<g id="graph0" class="graph" transform="scale(1.0 1.0) rotate(0.0) translate(4.0 154.6)">
<title>Minimaler DFA</title>
<polygon fill="white" stroke="transparent" points="-4,4 -4,-154.6 351.58,-154.6 351.58,4 -4,4"/>
<!-- q0q4 -->
<g id="node1" class="node">
<title>q0q4</title>
<ellipse fill="none" stroke="black" cx="28.6" cy="-89" rx="28.7" ry="28.7"/>
<text text-anchor="middle" x="28.6" y="-85.3" font-family="Times,serif" font-size="14.00">q0q4</text>
</g>
<!-- q0q4&#45;&gt;q0q4 -->
<g id="edge2" class="edge">
<title>q0q4&#45;&gt;q0q4</title>
<path fill="none" stroke="black" d="M19.26,-116.28C18.84,-126.83 21.96,-135.6 28.6,-135.6 32.85,-135.6 35.66,-132 37.02,-126.64"/>
<polygon fill="black" stroke="black" points="40.54,-126.55 37.94,-116.28 33.57,-125.93 40.54,-126.55"/>
<text text-anchor="middle" x="28.6" y="-139.4" font-family="Times,serif" font-size="14.00">b</text>
</g>
<!-- q5q6 -->
<g id="node2" class="node">
<title>q5q6</title>
<ellipse fill="none" stroke="black" cx="128.79" cy="-89" rx="28.7" ry="28.7"/>
<text text-anchor="middle" x="128.79" y="-85.3" font-family="Times,serif" font-size="14.00">q5q6</text>
</g>
<!-- q0q4&#45;&gt;q5q6 -->
<g id="edge1" class="edge">
<title>q0q4&#45;&gt;q5q6</title>
<path fill="none" stroke="black" d="M57.21,-89C67.36,-89 79.03,-89 89.92,-89"/>
<polygon fill="black" stroke="black" points="90.05,-92.5 100.05,-89 90.05,-85.5 90.05,-92.5"/>
<text text-anchor="middle" x="78.69" y="-92.8" font-family="Times,serif" font-size="14.00">a</text>
</g>
<!-- q5q6&#45;&gt;q0q4 -->
<g id="edge4" class="edge">
<title>q5q6&#45;&gt;q0q4</title>
<path fill="none" stroke="black" d="M102.79,-76.51C96.25,-73.82 89.09,-71.38 82.19,-70 75.88,-68.74 69.32,-69.4 63.05,-71.08"/>
<polygon fill="black" stroke="black" points="61.8,-67.81 53.52,-74.42 64.11,-74.42 61.8,-67.81"/>
<text text-anchor="middle" x="78.69" y="-73.8" font-family="Times,serif" font-size="14.00">b</text>
</g>
<!-- q1q2 -->
<g id="node3" class="node">
<title>q1q2</title>
<ellipse fill="none" stroke="black" cx="228.99" cy="-51" rx="28.7" ry="28.7"/>
<text text-anchor="middle" x="228.99" y="-47.3" font-family="Times,serif" font-size="14.00">q1q2</text>
</g>
<!-- q5q6&#45;&gt;q1q2 -->
<g id="edge3" class="edge">
<title>q5q6&#45;&gt;q1q2</title>
<path fill="none" stroke="black" d="M155.59,-79.02C166.89,-74.64 180.33,-69.44 192.55,-64.71"/>
<polygon fill="black" stroke="black" points="193.96,-67.92 202.02,-61.05 191.43,-61.39 193.96,-67.92"/>
<text text-anchor="middle" x="178.89" y="-74.8" font-family="Times,serif" font-size="14.00">a</text>
</g>
<!-- q1q2&#45;&gt;q5q6 -->
<g id="edge6" class="edge">
<title>q1q2&#45;&gt;q5q6</title>
<path fill="none" stroke="black" d="M200.57,-45.94C192.26,-45.46 183.26,-46.04 175.39,-49 168.34,-51.65 161.68,-55.94 155.73,-60.75"/>
<polygon fill="black" stroke="black" points="153.25,-58.27 148.09,-67.52 157.89,-63.51 153.25,-58.27"/>
<text text-anchor="middle" x="178.89" y="-52.8" font-family="Times,serif" font-size="14.00">b</text>
</g>
<!-- q3 -->
<g id="node4" class="node">
<title>q3</title>
<ellipse fill="none" stroke="black" cx="324.08" cy="-89" rx="19.5" ry="19.5"/>
<ellipse fill="none" stroke="black" cx="324.08" cy="-89" rx="23.5" ry="23.5"/>
<text text-anchor="middle" x="324.08" y="-85.3" font-family="Times,serif" font-size="14.00">q3</text>
</g>
<!-- q1q2&#45;&gt;q3 -->
<g id="edge5" class="edge">
<title>q1q2&#45;&gt;q3</title>
<path fill="none" stroke="black" d="M255.92,-61.59C267.27,-66.22 280.67,-71.69 292.5,-76.52"/>
<polygon fill="black" stroke="black" points="291.41,-79.85 301.99,-80.39 294.05,-73.37 291.41,-79.85"/>
<text text-anchor="middle" x="279.08" y="-75.8" font-family="Times,serif" font-size="14.00">a</text>
</g>
<!-- q3&#45;&gt;q5q6 -->
<g id="edge7" class="edge">
<title>q3&#45;&gt;q5q6</title>
<path fill="none" stroke="black" d="M300.39,-90.32C294.58,-90.6 288.36,-90.86 282.58,-91 243.44,-91.97 198.64,-91.15 167.72,-90.29"/>
<polygon fill="black" stroke="black" points="167.5,-86.78 157.4,-89.99 167.29,-93.78 167.5,-86.78"/>
<text text-anchor="middle" x="228.99" y="-94.8" font-family="Times,serif" font-size="14.00">a</text>
</g>
<!-- q3&#45;&gt;q1q2 -->
<g id="edge8" class="edge">
<title>q3&#45;&gt;q1q2</title>
<path fill="none" stroke="black" d="M308.96,-70.63C301.95,-63.02 292.8,-55.04 282.58,-51 277.95,-49.16 272.89,-48.11 267.81,-47.59"/>
<polygon fill="black" stroke="black" points="267.6,-44.08 257.47,-47.19 267.33,-51.08 267.6,-44.08"/>
<text text-anchor="middle" x="279.08" y="-54.8" font-family="Times,serif" font-size="14.00">b</text>
</g>
<g id="node5" class="node">
<title></title>
</g>
<!-- &#45;&gt;q1q2 -->
<g id="edge9" class="edge">
<title>&#45;&gt;q1q2</title>
<path fill="none" stroke="red" d="M155.95,-24.22C164.46,-26.44 173.89,-29.11 182.39,-32 185.93,-33.2 189.58,-34.54 193.21,-35.95"/>
<polygon fill="red" stroke="red" points="192.07,-39.26 202.66,-39.73 194.68,-32.76 192.07,-39.26"/>
</g>
</g>
</svg>
