<svg width="414px" height="280px"
 viewBox="0.00 0.00 413.99 280.50" xmlns="http://www.w3.org/2000/svg" xmlns:xlink="http://www.w3.org/1999/xlink">
<g id="graph0" class="graph" transform="scale(1.0 1.0) rotate(0.0) translate(4.0 276.5)">
<title>DFA</title>
<polygon fill="white" stroke="transparent" points="-4,4 -4,-276.5 409.99,-276.5 409.99,4 -4,4"/>
<!-- q0 -->
<g id="node1" class="node">
<title>q0</title>
<ellipse fill="none" stroke="black" cx="19.5" cy="-96.5" rx="19.5" ry="19.5"/>
<text text-anchor="middle" x="19.5" y="-92.8" font-family="Times,serif" font-size="14.00">q0</text>
</g>
<!-- q0&#45;&gt;q0 -->
<g id="edge2" class="edge">
<title>q0&#45;&gt;q0</title>
<path fill="none" stroke="black" d="M12.31,-115.02C11.09,-124.95 13.48,-134 19.5,-134 23.26,-134 25.6,-130.46 26.54,-125.39"/>
<polygon fill="black" stroke="black" points="30.04,-125.07 26.69,-115.02 23.04,-124.97 30.04,-125.07"/>
<text text-anchor="middle" x="19.5" y="-137.8" font-family="Times,serif" font-size="14.00">b</text>
</g>
<!-- q4 -->
<g id="node2" class="node">
<title>q4</title>
<ellipse fill="none" stroke="black" cx="109" cy="-148.5" rx="19.5" ry="19.5"/>
<text text-anchor="middle" x="109" y="-144.8" font-family="Times,serif" font-size="14.00">q4</text>
</g>
<!-- q0&#45;&gt;q4 -->
<g id="edge1" class="edge">
<title>q0&#45;&gt;q4</title>
<path fill="none" stroke="black" d="M36.55,-106.04C49.54,-113.76 68.07,-124.77 83,-133.64"/>
<polygon fill="black" stroke="black" points="81.37,-136.74 91.75,-138.85 84.95,-130.73 81.37,-136.74"/>
<text text-anchor="middle" x="60.5" y="-124.3" font-family="Times,serif" font-size="14.00">a</text>
</g>
<!-- q2 -->
<g id="node3" class="node">
<title>q2</title>
<ellipse fill="none" stroke="black" cx="202.49" cy="-101.5" rx="19.5" ry="19.5"/>
<ellipse fill="none" stroke="black" cx="202.49" cy="-101.5" rx="23.5" ry="23.5"/>
<text text-anchor="middle" x="202.49" y="-97.8" font-family="Times,serif" font-size="14.00">q2</text>
</g>
<!-- q4&#45;&gt;q2 -->
<g id="edge3" class="edge">
<title>q4&#45;&gt;q2</title>
<path fill="none" stroke="black" d="M126.78,-139.88C139.51,-133.34 157.33,-124.19 172.37,-116.46"/>
<polygon fill="black" stroke="black" points="174.01,-119.55 181.31,-111.87 170.81,-113.32 174.01,-119.55"/>
<text text-anchor="middle" x="157.5" y="-128.3" font-family="Times,serif" font-size="14.00">a</text>
</g>
<!-- q5 -->
<g id="node6" class="node">
<title>q5</title>
<ellipse fill="none" stroke="black" cx="202.49" cy="-187.5" rx="19.5" ry="19.5"/>
<ellipse fill="none" stroke="black" cx="202.49" cy="-187.5" rx="23.5" ry="23.5"/>
<text text-anchor="middle" x="202.49" y="-183.8" font-family="Times,serif" font-size="14.00">q5</text>
</g>
<!-- q4&#45;&gt;q5 -->
<g id="edge4" class="edge">
<title>q4&#45;&gt;q5</title>
<path fill="none" stroke="black" d="M127.21,-155.83C139.61,-161.12 156.66,-168.39 171.31,-174.63"/>
<polygon fill="black" stroke="black" points="169.94,-177.85 180.51,-178.55 172.68,-171.41 169.94,-177.85"/>
<text text-anchor="middle" x="157.5" y="-172.3" font-family="Times,serif" font-size="14.00">b</text>
</g>
<!-- q2&#45;&gt;q0 -->
<g id="edge6" class="edge">
<title>q2&#45;&gt;q0</title>
<path fill="none" stroke="black" d="M178.97,-100.88C146.25,-99.97 85.55,-98.3 49.52,-97.3"/>
<polygon fill="black" stroke="black" points="49.28,-93.79 39.19,-97.01 49.09,-100.79 49.28,-93.79"/>
<text text-anchor="middle" x="109" y="-104.3" font-family="Times,serif" font-size="14.00">b</text>
</g>
<!-- q3 -->
<g id="node4" class="node">
<title>q3</title>
<ellipse fill="none" stroke="black" cx="292.49" cy="-70.5" rx="19.5" ry="19.5"/>
<ellipse fill="none" stroke="black" cx="292.49" cy="-70.5" rx="23.5" ry="23.5"/>
<text text-anchor="middle" x="292.49" y="-66.8" font-family="Times,serif" font-size="14.00">q3</text>
</g>
<!-- q2&#45;&gt;q3 -->
<g id="edge5" class="edge">
<title>q2&#45;&gt;q3</title>
<path fill="none" stroke="black" d="M224.8,-93.99C235.53,-90.21 248.73,-85.56 260.56,-81.4"/>
<polygon fill="black" stroke="black" points="261.81,-84.66 270.08,-78.04 259.49,-78.06 261.81,-84.66"/>
<text text-anchor="middle" x="247.49" y="-91.3" font-family="Times,serif" font-size="14.00">a</text>
</g>
<!-- q3&#45;&gt;q0 -->
<g id="edge8" class="edge">
<title>q3&#45;&gt;q0</title>
<path fill="none" stroke="black" d="M268.76,-70.07C256.16,-69.85 240.21,-69.61 225.99,-69.5 205.11,-69.34 199.81,-67.74 179,-69.5 133.02,-73.39 80.33,-83.51 48.77,-90.2"/>
<polygon fill="black" stroke="black" points="47.95,-86.79 38.91,-92.32 49.43,-93.64 47.95,-86.79"/>
<text text-anchor="middle" x="157.5" y="-76.3" font-family="Times,serif" font-size="14.00">b</text>
</g>
<!-- q1 -->
<g id="node5" class="node">
<title>q1</title>
<ellipse fill="none" stroke="black" cx="382.49" cy="-23.5" rx="19.5" ry="19.5"/>
<ellipse fill="none" stroke="black" cx="382.49" cy="-23.5" rx="23.5" ry="23.5"/>
<text text-anchor="middle" x="382.49" y="-19.8" font-family="Times,serif" font-size="14.00">q1</text>
</g>
<!-- q3&#45;&gt;q1 -->
<g id="edge7" class="edge">
<title>q3&#45;&gt;q1</title>
<path fill="none" stroke="black" d="M313.46,-59.83C324.97,-53.69 339.64,-45.85 352.41,-39.03"/>
<polygon fill="black" stroke="black" points="354.12,-42.08 361.29,-34.28 350.82,-35.91 354.12,-42.08"/>
<text text-anchor="middle" x="337.49" y="-52.3" font-family="Times,serif" font-size="14.00">a</text>
</g>
<!-- q1&#45;&gt;q0 -->
<g id="edge10" class="edge">
<title>q1&#45;&gt;q0</title>
<path fill="none" stroke="black" d="M359.63,-17.27C341.94,-12.77 316.32,-7.5 293.49,-7.5 108,-7.5 108,-7.5 108,-7.5 72.68,-7.5 46.87,-43.57 32.77,-69.79"/>
<polygon fill="black" stroke="black" points="29.54,-68.42 28.11,-78.91 35.78,-71.6 29.54,-68.42"/>
<text text-anchor="middle" x="202.49" y="-11.3" font-family="Times,serif" font-size="14.00">b</text>
</g>
<!-- q1&#45;&gt;q1 -->
<g id="edge9" class="edge">
<title>q1&#45;&gt;q1</title>
<path fill="none" stroke="black" d="M374.4,-45.7C373.52,-56 376.21,-65 382.49,-65 386.51,-65 389.06,-61.3 390.14,-55.94"/>
<polygon fill="black" stroke="black" points="393.65,-55.84 390.57,-45.7 386.65,-55.54 393.65,-55.84"/>
<text text-anchor="middle" x="382.49" y="-68.8" font-family="Times,serif" font-size="14.00">a</text>
</g>
<!-- q5&#45;&gt;q0 -->
<g id="edge12" class="edge">
<title>q5&#45;&gt;q0</title>
<path fill="none" stroke="black" d="M179.07,-190.85C153.68,-193.48 111.95,-194.19 82,-176.5 60.67,-163.9 44.15,-140.83 33.62,-122.68"/>
<polygon fill="black" stroke="black" points="36.57,-120.78 28.67,-113.73 30.45,-124.17 36.57,-120.78"/>
<text text-anchor="middle" x="109" y="-195.3" font-family="Times,serif" font-size="14.00">b</text>
</g>
<!-- q5&#45;&gt;q3 -->
<g id="edge11" class="edge">
<title>q5&#45;&gt;q3</title>
<path fill="none" stroke="black" d="M217.44,-168.96C231.98,-149.62 254.93,-119.12 271.42,-97.18"/>
<polygon fill="black" stroke="black" points="274.4,-99.05 277.61,-88.95 268.81,-94.84 274.4,-99.05"/>
<text text-anchor="middle" x="247.49" y="-136.3" font-family="Times,serif" font-size="14.00">a</text>
</g>
<g id="node7" class="node">
<title></title>
</g>
<!-- &#45;&gt;q5 -->
<g id="edge13" class="edge">
<title>&#45;&gt;q5</title>
<path fill="none" stroke="red" d="M134.93,-236.48C143.24,-230.46 152.53,-223.71 161,-217.5 165.5,-214.2 170.26,-210.68 174.89,-207.26"/>
<polygon fill="red" stroke="red" points="177.02,-210.04 182.98,-201.28 172.86,-204.42 177.02,-210.04"/>
</g>
</g>
</svg>
