<svg width="345px" height="236px"
 viewBox="0.00 0.00 345.38 235.60" xmlns="http://www.w3.org/2000/svg" xmlns:xlink="http://www.w3.org/1999/xlink">
<g id="graph0" class="graph" transform="scale(1.0 1.0) rotate(0.0) translate(4.0 231.6)">
<title>Minimaler DFA</title>
<polygon fill="white" stroke="transparent" points="-4,4 -4,-231.6 341.38,-231.6 341.38,4 -4,4"/>
<!-- q0 -->
<g id="node1" class="node">
<title>q0</title>
<ellipse fill="none" stroke="black" cx="23.5" cy="-118" rx="19.5" ry="19.5"/>
<ellipse fill="none" stroke="black" cx="23.5" cy="-118" rx="23.5" ry="23.5"/>
<text text-anchor="middle" x="23.5" y="-114.3" font-family="Times,serif" font-size="14.00">q0</text>
</g>
<!-- q1 -->
<g id="node2" class="node">
<title>q1</title>
<ellipse fill="none" stroke="black" cx="109.49" cy="-166" rx="19.5" ry="19.5"/>
<text text-anchor="middle" x="109.49" y="-162.3" font-family="Times,serif" font-size="14.00">q1</text>
</g>
<!-- q0&#45;&gt;q1 -->
<g id="edge1" class="edge">
<title>q0&#45;&gt;q1</title>
<path fill="none" stroke="black" d="M41.26,-133.9C48.21,-139.86 56.6,-146.32 65,-151 69.97,-153.77 75.54,-156.16 81,-158.16"/>
<polygon fill="black" stroke="black" points="79.94,-161.5 90.54,-161.36 82.17,-154.86 79.94,-161.5"/>
<text text-anchor="middle" x="68.5" y="-157.8" font-family="Times,serif" font-size="14.00">a</text>
</g>
<!-- q2q4 -->
<g id="node4" class="node">
<title>q2q4</title>
<ellipse fill="none" stroke="black" cx="304.79" cy="-102" rx="28.68" ry="28.68"/>
<ellipse fill="none" stroke="black" cx="304.79" cy="-102" rx="32.7" ry="32.7"/>
<text text-anchor="middle" x="304.79" y="-98.3" font-family="Times,serif" font-size="14.00">q2q4</text>
</g>
<!-- q0&#45;&gt;q2q4 -->
<g id="edge2" class="edge">
<title>q0&#45;&gt;q2q4</title>
<path fill="none" stroke="black" d="M47.35,-116.69C94.3,-114 202.19,-107.82 261.98,-104.39"/>
<polygon fill="black" stroke="black" points="262.43,-107.88 272.21,-103.81 262.03,-100.89 262.43,-107.88"/>
<text text-anchor="middle" x="150.49" y="-113.8" font-family="Times,serif" font-size="14.00">b</text>
</g>
<!-- q1&#45;&gt;q0 -->
<g id="edge3" class="edge">
<title>q1&#45;&gt;q0</title>
<path fill="none" stroke="black" d="M95.85,-151.43C89.32,-144.68 80.87,-137.06 72,-132 67.14,-129.23 61.69,-126.97 56.26,-125.13"/>
<polygon fill="black" stroke="black" points="57.22,-121.76 46.63,-122.26 55.22,-128.47 57.22,-121.76"/>
<text text-anchor="middle" x="68.5" y="-135.8" font-family="Times,serif" font-size="14.00">a</text>
</g>
<!-- q3q5 -->
<g id="node3" class="node">
<title>q3q5</title>
<ellipse fill="none" stroke="black" cx="200.59" cy="-166" rx="28.7" ry="28.7"/>
<text text-anchor="middle" x="200.59" y="-162.3" font-family="Times,serif" font-size="14.00">q3q5</text>
</g>
<!-- q1&#45;&gt;q3q5 -->
<g id="edge4" class="edge">
<title>q1&#45;&gt;q3q5</title>
<path fill="none" stroke="black" d="M129.39,-166C138.85,-166 150.66,-166 161.88,-166"/>
<polygon fill="black" stroke="black" points="161.93,-169.5 171.93,-166 161.93,-162.5 161.93,-169.5"/>
<text text-anchor="middle" x="150.49" y="-169.8" font-family="Times,serif" font-size="14.00">b</text>
</g>
<!-- q3q5&#45;&gt;q3q5 -->
<g id="edge6" class="edge">
<title>q3q5&#45;&gt;q3q5</title>
<path fill="none" stroke="black" d="M191.25,-193.28C190.84,-203.83 193.95,-212.6 200.59,-212.6 204.84,-212.6 207.65,-209 209.01,-203.64"/>
<polygon fill="black" stroke="black" points="212.53,-203.55 209.93,-193.28 205.56,-202.93 212.53,-203.55"/>
<text text-anchor="middle" x="200.59" y="-216.4" font-family="Times,serif" font-size="14.00">b</text>
</g>
<!-- q3q5&#45;&gt;q2q4 -->
<g id="edge5" class="edge">
<title>q3q5&#45;&gt;q2q4</title>
<path fill="none" stroke="black" d="M228.86,-160.99C237.34,-158.72 246.48,-155.5 254.19,-151 261.93,-146.48 269.34,-140.48 275.96,-134.23"/>
<polygon fill="black" stroke="black" points="278.75,-136.39 283.35,-126.85 273.8,-131.44 278.75,-136.39"/>
<text text-anchor="middle" x="250.69" y="-157.8" font-family="Times,serif" font-size="14.00">a</text>
</g>
<!-- q2q4&#45;&gt;q0 -->
<g id="edge7" class="edge">
<title>q2q4&#45;&gt;q0</title>
<path fill="none" stroke="black" d="M272.49,-96.53C240.79,-91.75 190.4,-86.27 146.99,-91 115.74,-94.4 80.78,-102.56 56.23,-109.02"/>
<polygon fill="black" stroke="black" points="55.14,-105.69 46.39,-111.67 56.95,-112.45 55.14,-105.69"/>
<text text-anchor="middle" x="150.49" y="-94.8" font-family="Times,serif" font-size="14.00">a</text>
</g>
<!-- q2q4&#45;&gt;q3q5 -->
<g id="edge8" class="edge">
<title>q2q4&#45;&gt;q3q5</title>
<path fill="none" stroke="black" d="M275.09,-116.12C266,-120.88 256.02,-126.41 247.19,-132 242.06,-135.25 236.76,-138.9 231.67,-142.57"/>
<polygon fill="black" stroke="black" points="229.34,-139.94 223.37,-148.7 233.5,-145.57 229.34,-139.94"/>
<text text-anchor="middle" x="250.69" y="-135.8" font-family="Times,serif" font-size="14.00">b</text>
</g>
<g id="node5" class="node">
<title></title>
</g>
<!-- &#45;&gt;q2q4 -->
<g id="edge9" class="edge">
<title>&#45;&gt;q2q4</title>
<path fill="none" stroke="red" d="M227.64,-32.02C236.41,-37.2 246.03,-43.43 254.19,-50 261.68,-56.03 269.16,-63.15 275.95,-70.15"/>
<polygon fill="red" stroke="red" points="273.62,-72.77 283.02,-77.64 278.71,-67.97 273.62,-72.77"/>
</g>
</g>
</svg>
