<svg width="570px" height="254px"
 viewBox="0.00 0.00 569.98 254.00" xmlns="http://www.w3.org/2000/svg" xmlns:xlink="http://www.w3.org/1999/xlink">
<g id="graph0" class="graph" transform="scale(1.0 1.0) rotate(0.0) translate(4.0 250.0)">
<title>DFA</title>
<polygon fill="white" stroke="transparent" points="-4,4 -4,-250 565.98,-250 565.98,4 -4,4"/>
<!-- q0 -->
<g id="node1" class="node">
<title>q0</title>
<ellipse fill="none" stroke="black" cx="19.5" cy="-49" rx="19.5" ry="19.5"/>
<text text-anchor="middle" x="19.5" y="-45.3" font-family="Times,serif" font-size="14.00">q0</text>
</g>
<!-- q6 -->
<g id="node2" class="node">
<title>q6</title>
<ellipse fill="none" stroke="black" cx="187.49" cy="-123" rx="19.5" ry="19.5"/>
<ellipse fill="none" stroke="black" cx="187.49" cy="-123" rx="23.5" ry="23.5"/>
<text text-anchor="middle" x="187.49" y="-119.3" font-family="Times,serif" font-size="14.00">q6</text>
</g>
<!-- q0&#45;&gt;q6 -->
<g id="edge1" class="edge">
<title>q0&#45;&gt;q6</title>
<path fill="none" stroke="black" d="M37.1,-57.94C43.3,-61.2 50.43,-64.85 57,-68 90.2,-83.91 129.2,-100.15 155.66,-110.82"/>
<polygon fill="black" stroke="black" points="154.56,-114.15 165.15,-114.62 157.17,-107.65 154.56,-114.15"/>
<text text-anchor="middle" x="101.49" y="-98.8" font-family="Times,serif" font-size="14.00">a</text>
</g>
<!-- q3 -->
<g id="node7" class="node">
<title>q3</title>
<ellipse fill="none" stroke="black" cx="101.49" cy="-49" rx="19.5" ry="19.5"/>
<text text-anchor="middle" x="101.49" y="-45.3" font-family="Times,serif" font-size="14.00">q3</text>
</g>
<!-- q0&#45;&gt;q3 -->
<g id="edge2" class="edge">
<title>q0&#45;&gt;q3</title>
<path fill="none" stroke="black" d="M39.05,-49C48.68,-49 60.65,-49 71.47,-49"/>
<polygon fill="black" stroke="black" points="71.76,-52.5 81.76,-49 71.76,-45.5 71.76,-52.5"/>
<text text-anchor="middle" x="60.5" y="-52.8" font-family="Times,serif" font-size="14.00">b</text>
</g>
<!-- q2 -->
<g id="node3" class="node">
<title>q2</title>
<ellipse fill="none" stroke="black" cx="280.99" cy="-144" rx="19.5" ry="19.5"/>
<text text-anchor="middle" x="280.99" y="-140.3" font-family="Times,serif" font-size="14.00">q2</text>
</g>
<!-- q6&#45;&gt;q2 -->
<g id="edge3" class="edge">
<title>q6&#45;&gt;q2</title>
<path fill="none" stroke="black" d="M209.15,-132.44C215.41,-134.95 222.38,-137.4 228.99,-139 236.08,-140.71 243.86,-141.84 251.15,-142.58"/>
<polygon fill="black" stroke="black" points="251.12,-146.09 261.37,-143.42 251.69,-139.12 251.12,-146.09"/>
<text text-anchor="middle" x="232.49" y="-143.8" font-family="Times,serif" font-size="14.00">a</text>
</g>
<!-- q6&#45;&gt;q2 -->
<g id="edge4" class="edge">
<title>q6&#45;&gt;q2</title>
<path fill="none" stroke="black" d="M210.99,-118.74C218.98,-117.97 227.98,-117.96 235.99,-120 242.63,-121.69 249.35,-124.62 255.47,-127.85"/>
<polygon fill="black" stroke="black" points="254.09,-131.09 264.5,-133.06 257.58,-125.03 254.09,-131.09"/>
<text text-anchor="middle" x="232.49" y="-123.8" font-family="Times,serif" font-size="14.00">b</text>
</g>
<!-- q2&#45;&gt;q6 -->
<g id="edge5" class="edge">
<title>q2&#45;&gt;q6</title>
<path fill="none" stroke="black" d="M266.92,-130.12C254.69,-117.21 238,-99.85 235.99,-99 228.56,-95.88 220.69,-97.66 213.53,-101.38"/>
<polygon fill="black" stroke="black" points="211.46,-98.55 204.93,-106.89 215.24,-104.44 211.46,-98.55"/>
<text text-anchor="middle" x="232.49" y="-102.8" font-family="Times,serif" font-size="14.00">a</text>
</g>
<!-- q4 -->
<g id="node4" class="node">
<title>q4</title>
<ellipse fill="none" stroke="black" cx="370.49" cy="-87" rx="19.5" ry="19.5"/>
<text text-anchor="middle" x="370.49" y="-83.3" font-family="Times,serif" font-size="14.00">q4</text>
</g>
<!-- q2&#45;&gt;q4 -->
<g id="edge6" class="edge">
<title>q2&#45;&gt;q4</title>
<path fill="none" stroke="black" d="M297.63,-133.81C310.86,-125.19 330.04,-112.7 345.26,-102.78"/>
<polygon fill="black" stroke="black" points="347.22,-105.69 353.69,-97.29 343.4,-99.82 347.22,-105.69"/>
<text text-anchor="middle" x="329.49" y="-116.8" font-family="Times,serif" font-size="14.00">b</text>
</g>
<!-- q4&#45;&gt;q0 -->
<g id="edge8" class="edge">
<title>q4&#45;&gt;q0</title>
<path fill="none" stroke="black" d="M361.55,-69.39C348.75,-43.97 320.98,0 281.99,0 100.49,0 100.49,0 100.49,0 77.68,0 55.89,-14.67 40.82,-27.95"/>
<polygon fill="black" stroke="black" points="38.1,-25.71 33.18,-35.09 42.88,-30.82 38.1,-25.71"/>
<text text-anchor="middle" x="187.49" y="-3.8" font-family="Times,serif" font-size="14.00">b</text>
</g>
<!-- q5 -->
<g id="node5" class="node">
<title>q5</title>
<ellipse fill="none" stroke="black" cx="456.48" cy="-140" rx="19.5" ry="19.5"/>
<ellipse fill="none" stroke="black" cx="456.48" cy="-140" rx="23.5" ry="23.5"/>
<text text-anchor="middle" x="456.48" y="-136.3" font-family="Times,serif" font-size="14.00">q5</text>
</g>
<!-- q4&#45;&gt;q5 -->
<g id="edge7" class="edge">
<title>q4&#45;&gt;q5</title>
<path fill="none" stroke="black" d="M387.29,-96.97C398.56,-104.08 414.03,-113.84 427.39,-122.27"/>
<polygon fill="black" stroke="black" points="425.89,-125.47 436.22,-127.84 429.63,-119.55 425.89,-125.47"/>
<text text-anchor="middle" x="411.49" y="-116.8" font-family="Times,serif" font-size="14.00">a</text>
</g>
<!-- q5&#45;&gt;q6 -->
<g id="edge9" class="edge">
<title>q5&#45;&gt;q6</title>
<path fill="none" stroke="black" d="M443.55,-159.96C432.18,-176.84 413.35,-199.87 389.99,-210 324.31,-238.49 289.01,-244.02 228.99,-205 212.08,-194 201.98,-173.72 196.09,-156.08"/>
<polygon fill="black" stroke="black" points="199.32,-154.66 193.09,-146.09 192.61,-156.67 199.32,-154.66"/>
<text text-anchor="middle" x="329.49" y="-234.8" font-family="Times,serif" font-size="14.00">a</text>
</g>
<!-- q1 -->
<g id="node6" class="node">
<title>q1</title>
<ellipse fill="none" stroke="black" cx="542.48" cy="-140" rx="19.5" ry="19.5"/>
<text text-anchor="middle" x="542.48" y="-136.3" font-family="Times,serif" font-size="14.00">q1</text>
</g>
<!-- q5&#45;&gt;q1 -->
<g id="edge10" class="edge">
<title>q5&#45;&gt;q1</title>
<path fill="none" stroke="black" d="M479.99,-140C490.05,-140 502.03,-140 512.73,-140"/>
<polygon fill="black" stroke="black" points="512.88,-143.5 522.88,-140 512.88,-136.5 512.88,-143.5"/>
<text text-anchor="middle" x="501.48" y="-143.8" font-family="Times,serif" font-size="14.00">b</text>
</g>
<!-- q1&#45;&gt;q6 -->
<g id="edge11" class="edge">
<title>q1&#45;&gt;q6</title>
<path fill="none" stroke="black" d="M528.69,-153.94C513.36,-169.04 486.15,-191 457.48,-191 279.99,-191 279.99,-191 279.99,-191 251.07,-191 225.35,-168.84 208.61,-149.83"/>
<polygon fill="black" stroke="black" points="211.1,-147.36 201.99,-141.94 205.74,-151.85 211.1,-147.36"/>
<text text-anchor="middle" x="370.49" y="-194.8" font-family="Times,serif" font-size="14.00">a</text>
</g>
<!-- q1&#45;&gt;q4 -->
<g id="edge12" class="edge">
<title>q1&#45;&gt;q4</title>
<path fill="none" stroke="black" d="M528.31,-126.09C516.75,-114.92 498.89,-99.99 479.98,-93 454.28,-83.5 422.82,-82.85 400.41,-84.07"/>
<polygon fill="black" stroke="black" points="399.93,-80.59 390.2,-84.78 400.42,-87.57 399.93,-80.59"/>
<text text-anchor="middle" x="456.48" y="-96.8" font-family="Times,serif" font-size="14.00">b</text>
</g>
<!-- q3&#45;&gt;q6 -->
<g id="edge13" class="edge">
<title>q3&#45;&gt;q6</title>
<path fill="none" stroke="black" d="M116.74,-61.55C128.99,-72.34 146.92,-88.14 161.54,-101.02"/>
<polygon fill="black" stroke="black" points="159.45,-103.84 169.26,-107.82 164.07,-98.59 159.45,-103.84"/>
<text text-anchor="middle" x="142.49" y="-89.8" font-family="Times,serif" font-size="14.00">a</text>
</g>
<!-- q3&#45;&gt;q4 -->
<g id="edge14" class="edge">
<title>q3&#45;&gt;q4</title>
<path fill="none" stroke="black" d="M121.2,-48.19C157.66,-47.05 240.56,-46.59 307.99,-62 320.03,-64.75 332.77,-69.58 343.51,-74.27"/>
<polygon fill="black" stroke="black" points="342.19,-77.51 352.74,-78.47 345.09,-71.14 342.19,-77.51"/>
<text text-anchor="middle" x="232.49" y="-54.8" font-family="Times,serif" font-size="14.00">b</text>
</g>
<g id="node8" class="node">
<title></title>
</g>
<!-- &#45;&gt;q4 -->
<g id="edge15" class="edge">
<title>&#45;&gt;q4</title>
<path fill="none" stroke="red" d="M308.24,-88.4C318.4,-88.17 330.07,-87.9 340.48,-87.66"/>
<polygon fill="red" stroke="red" points="340.84,-91.16 350.76,-87.43 340.68,-84.16 340.84,-91.16"/>
</g>
</g>
</svg>
